<svg width="602" height="111" viewBox="0 0 602 111" fill="none" xmlns="http://www.w3.org/2000/svg">
<g clip-path="url(#clip0_1_3)">
<path d="M36.5 48.6V32C31.1 36.4 26.8 42 24 48.5H36.5V48.6Z" fill="#002D73"/>
<path d="M50.5 27.9V48.7C56.2 48.7 60.9 44 60.9 38.3C60.8 32.6 56.2 28 50.5 27.9Z" fill="#002D73"/>
<path d="M101.4 5.39999C85.5 1.99999 69.1 0.200012 52.2 0.200012C35.3 0.200012 18.8 1.99999 2.99999 5.39999H2.89999C1.79999 5.69999 0.899994 6.69999 0.899994 7.89999V16.8C0.899994 75.7 35.8 102.3 50.8 110.2C51.8 110.7 52.5 110.7 53.4 110.2C68.4 102.2 103.4 75.7 103.4 16.8V7.89999C103.5 6.69999 102.6 5.59999 101.4 5.39999ZM41.5 65.2H36.5V53.8H22.2C21.2 57.4 20.6 61.3 20.6 65.2H15.7C15.7 46.8 26.2 30.8 41.5 23V65.2ZM50.5 53.7V65.1H45.5V22.9H50.5C59 22.9 65.9 29.8 65.9 38.3C65.8 46.8 58.9 53.7 50.5 53.7ZM89.6 65.2H73.4H68.7H68.4V23H73.4V60.4H89.6V65.2Z" fill="#002D73"/>
<path d="M135.1 21.7C135.1 13.7 134.4 12.8 130.1 12.4L128.3 12.3C127.9 12 128 10.7 128.4 10.5C132.6 10.6 135.1 10.7 138.1 10.7C141 10.7 143.5 10.6 146.4 10.5C146.8 10.7 147 12 146.5 12.3L145.4 12.4C141.1 13 141 14 141 21.7V48.6C141 54.3 140.7 59.3 139.3 62.6C136.9 68.4 131.8 73 125 73C124.1 73 121.9 72.9 121.9 71.5C121.9 70.3 123 68.2 124.5 68.2C125.4 68.2 126.2 68.3 127.2 68.6C128.2 68.9 129.2 69.1 130.2 69.1C131.7 69.1 132.6 68.2 133.1 67.2C134.8 63.8 135 52.9 135 49V21.7H135.1Z" fill="#002D73"/>
<path d="M146.4 38.8C146.4 26.6 155.6 17.2 168.2 17.2C182.3 17.2 189.4 27.4 189.4 38.2C189.4 50.5 180 59.5 168.2 59.5C154.6 59.5 146.4 49.8 146.4 38.8ZM183.2 40.1C183.2 30 178.7 19.1 167.1 19.1C160.7 19.1 152.5 23.4 152.5 36.8C152.5 45.8 156.9 57.6 168.9 57.6C176.3 57.6 183.2 52.1 183.2 40.1Z" fill="#002D73"/>
<path d="M203.2 38.8C200.3 38.8 200.1 38.9 200.1 40.8V49.4C200.1 55.8 200.4 56.7 203.8 57L205.6 57.2C206 57.4 205.8 58.5 205.5 58.7C202.2 58.6 200.1 58.5 197.7 58.5C195.1 58.5 193 58.6 190.6 58.7C190.2 58.5 190.1 57.5 190.5 57.2L191.5 57C194.9 56.4 195 55.8 195 49.4V27.4C195 21 194.6 19.9 191.4 19.7L189.8 19.6C189.4 19.4 189.6 18.3 189.9 18.1C192.9 18.2 195 18.3 197.6 18.3C200 18.3 202.1 18.2 204.7 18.1C205.1 18.3 205.2 19.4 204.8 19.6L203.6 19.7C200.1 20.1 199.9 21 199.9 27.4V34.4C199.9 36.3 200 36.4 203 36.4H220.5C223.4 36.4 223.6 36.3 223.6 34.4V27.4C223.6 21 223.5 20.1 219.9 19.7L218.7 19.6C218.3 19.4 218.5 18.3 218.8 18.1C221.6 18.2 223.7 18.3 226.2 18.3C228.6 18.3 230.7 18.2 233.4 18.1C233.8 18.3 233.9 19.4 233.5 19.6L232.2 19.7C228.7 20.1 228.5 21 228.5 27.4V49.4C228.5 55.8 228.6 56.6 232.2 57L233.7 57.2C234.1 57.4 233.9 58.5 233.6 58.7C230.7 58.6 228.6 58.5 226.2 58.5C223.7 58.5 221.5 58.6 218.8 58.7C218.4 58.5 218.3 57.5 218.7 57.2L219.9 57C223.6 56.4 223.6 55.8 223.6 49.4V40.8C223.6 39 223.5 38.8 220.5 38.8H203.2Z" fill="#002D73"/>
<path d="M275.6 48.1C275.6 49.9 275.6 57.2 275.8 58.8C275.7 59.2 275.3 59.5 274.6 59.5C273.9 58.5 272.1 56.3 266.8 50.3L252.6 34.2C250.9 32.3 246.8 27.3 245.5 26H245.4C245.2 26.7 245.1 28.1 245.1 30V43.3C245.1 46.2 245.2 54.1 246.2 55.9C246.6 56.6 247.8 56.9 249.3 57.1L251.2 57.3C251.6 57.8 251.5 58.5 251.1 58.8C248.4 58.7 246.2 58.6 244 58.6C241.4 58.6 239.8 58.7 237.6 58.8C237.2 58.5 237.1 57.6 237.5 57.3L239.1 57.1C240.5 56.9 241.5 56.5 241.8 55.9C242.7 53.7 242.6 46.2 242.6 43.3V25.6C242.6 23.9 242.5 22.6 241.3 21.2C240.4 20.3 239 19.9 237.5 19.7L236.5 19.6C236.1 19.2 236.1 18.3 236.6 18.1C239.2 18.3 242.4 18.3 243.5 18.3C244.5 18.3 245.5 18.2 246.3 18.1C247.5 21.2 254.7 29.3 256.8 31.5L262.7 38.2C266.9 42.9 269.9 46.3 272.8 49.3H272.9C273.1 49 273.1 48 273.1 46.7V33.6C273.1 30.7 273 22.8 271.9 21C271.5 20.5 270.6 20.1 268.1 19.8L267.1 19.7C266.7 19.3 266.7 18.4 267.2 18.2C270 18.3 272.1 18.4 274.4 18.4C277 18.4 278.6 18.3 280.7 18.2C281.2 18.5 281.2 19.4 280.8 19.7L279.9 19.8C277.9 20.1 276.7 20.6 276.5 21.1C275.5 23.3 275.6 30.9 275.6 33.7V48.1Z" fill="#002D73"/>
<path d="M291.8 59.5C286.7 59.5 283.4 57.9 282.3 57.2C281.6 55.9 280.8 51.5 280.6 48.6C280.9 48.2 281.8 48 282.1 48.4C283 51.5 285.5 57.5 292.6 57.5C297.7 57.5 300.2 54.1 300.2 50.5C300.2 47.8 299.6 44.8 295.2 41.9L289.4 38.1C286.3 36.1 282.8 32.6 282.8 27.6C282.8 21.8 287.3 17.1 295.3 17.1C297.2 17.1 299.4 17.5 301 17.9C301.8 18.1 302.6 18.3 303.1 18.3C303.6 19.8 304.2 23.2 304.2 25.8C304 26.2 303 26.4 302.7 26C301.9 23.1 300.3 19.1 294.4 19.1C288.4 19.1 287.1 23.1 287.1 25.9C287.1 29.4 290 32 292.3 33.4L297.2 36.5C301.1 38.9 304.8 42.4 304.8 48.2C304.8 54.9 299.7 59.5 291.8 59.5Z" fill="#002D73"/>
<path d="M341.1 35.1C337.6 35.1 337.5 35.2 337.5 37.4V47.6C337.5 55.2 337.9 56.2 341.9 56.7L344 56.9C344.4 57.2 344.3 58.5 343.9 58.7C340 58.6 337.5 58.5 334.7 58.5C331.6 58.5 329.1 58.6 326.3 58.7C325.9 58.5 325.7 57.3 326.2 56.9L327.4 56.7C331.5 56 331.6 55.2 331.6 47.6V21.5C331.6 13.9 331.1 12.7 327.3 12.4L325.4 12.3C325 12 325.1 10.7 325.5 10.5C329 10.6 331.5 10.7 334.6 10.7C337.4 10.7 339.9 10.6 343 10.5C343.4 10.7 343.6 12 343.1 12.3L341.7 12.4C337.5 12.8 337.4 13.9 337.4 21.5V29.8C337.4 32 337.5 32.1 341 32.1H361.7C365.2 32.1 365.3 32 365.3 29.8V21.5C365.3 13.9 365.2 12.8 360.9 12.4L359.5 12.3C359.1 12 359.2 10.7 359.6 10.5C362.9 10.6 365.4 10.7 368.4 10.7C371.2 10.7 373.7 10.6 376.9 10.5C377.3 10.7 377.5 12 377 12.3L375.5 12.4C371.3 12.8 371.2 13.9 371.2 21.5V47.6C371.2 55.2 371.3 56.1 375.5 56.7L377.2 56.9C377.6 57.2 377.5 58.5 377.1 58.7C373.6 58.6 371.2 58.5 368.3 58.5C365.3 58.5 362.7 58.6 359.5 58.7C359.1 58.5 358.9 57.3 359.4 56.9L360.8 56.7C365.2 56 365.2 55.2 365.2 47.6V37.4C365.2 35.2 365.1 35.1 361.6 35.1H341.1Z" fill="#002D73"/>
<path d="M377 38.8C377 26.6 386.2 17.2 398.8 17.2C412.9 17.2 420 27.4 420 38.2C420 50.5 410.6 59.5 398.8 59.5C385.2 59.5 377 49.8 377 38.8ZM413.8 40.1C413.8 30 409.3 19.1 397.7 19.1C391.3 19.1 383.1 23.4 383.1 36.8C383.1 45.8 387.5 57.6 399.5 57.6C406.9 57.6 413.8 52.1 413.8 40.1Z" fill="#002D73"/>
<path d="M431 49.4C431 55.8 431.1 56.6 435 57L436.7 57.2C437.1 57.5 436.9 58.5 436.6 58.7C433.1 58.6 431.1 58.5 428.7 58.5C426.1 58.5 423.9 58.6 421.2 58.7C420.8 58.5 420.7 57.5 421.1 57.2L422.4 57C425.9 56.5 426.1 55.8 426.1 49.4V26.9C426.1 21.7 426 20.7 423.2 20.4L421 20.2C420.6 19.8 420.6 18.9 421.1 18.7C424.3 18.3 428.1 18.2 433.2 18.2C438.3 18.2 442.1 18.9 444.9 20.6C447.7 22.4 449.8 25.5 449.8 29.8C449.8 35.4 446.3 38.2 443.7 39.5C441 40.8 437.8 41.3 435.3 41.3C434.9 41.1 434.9 40.2 435.2 40.1C441.8 38.9 444.2 35.1 444.2 29.8C444.2 23.9 440.7 20 434.4 20C431.2 20 431.1 20.2 431.1 22.2V49.4H431Z" fill="#002D73"/>
<path d="M456.4 27.4C456.4 21 456.3 20 452.7 19.7L451.2 19.6C450.8 19.4 451 18.3 451.3 18.1C454.3 18.2 456.2 18.3 459 18.3C461.4 18.3 463.5 18.2 466.1 18.1C466.5 18.3 466.6 19.4 466.2 19.6L465 19.7C461.5 20.1 461.3 21 461.3 27.4V34.4C461.3 35.6 461.4 36.7 462.1 36.7C462.6 36.7 463.4 36.3 463.8 36C464.7 35.3 466.2 33.7 466.9 33.1L473.5 26.6C474.7 25.5 477.7 22.4 478.3 21.5C478.6 21.1 478.7 20.8 478.7 20.5C478.7 20.3 478.5 20.1 477.7 19.9L476 19.5C475.6 19.1 475.6 18.3 476.1 18C478.2 18.1 480.7 18.2 482.8 18.2C484.9 18.2 487 18.1 488.8 18C489.2 18.3 489.3 19.2 488.9 19.5C487.3 19.6 484.9 20.2 483.2 21.2C481.5 22.2 478.1 25 474.6 28.3L469.1 33.5C468.2 34.4 467.7 34.9 467.7 35.4C467.7 35.8 468.1 36.3 468.9 37.3C474.7 44 479.4 49.5 484.2 54.5C485.7 56 486.8 56.8 488.9 57L490.1 57.2C490.5 57.5 490.4 58.5 490 58.7C488.4 58.6 486.7 58.5 483.9 58.5C481.4 58.5 479.3 58.6 476.4 58.7C476 58.6 475.8 57.5 476.2 57.2L477.6 57C478.5 56.9 479.1 56.7 479.1 56.4C479.1 56 478.7 55.5 478.2 55C477 53.5 475.5 51.9 473.1 49.3L468.2 43.8C464.7 39.9 463.7 38.7 462.3 38.7C461.4 38.7 461.3 39.5 461.3 41.6V49.5C461.3 55.9 461.4 56.8 464.8 57.1L466.5 57.3C466.9 57.5 466.7 58.6 466.4 58.8C463.4 58.7 461.3 58.6 458.9 58.6C456.4 58.6 454.3 58.7 451.8 58.8C451.4 58.6 451.3 57.7 451.7 57.3L452.9 57.1C456.1 56.6 456.3 55.9 456.3 49.5V27.4H456.4Z" fill="#002D73"/>
<path d="M498.3 27.5C498.3 21 498.2 20 494.6 19.7L493.1 19.6C492.7 19.4 492.9 18.3 493.2 18.1C496.3 18.2 498.3 18.3 500.9 18.3C503.3 18.3 505.4 18.2 508.5 18.1C508.9 18.3 509 19.4 508.6 19.6L507.1 19.7C503.5 20 503.4 21 503.4 27.5V49.2C503.4 55.7 503.5 56.5 507.1 57L508.6 57.2C509 57.4 508.8 58.5 508.5 58.7C505.4 58.6 503.4 58.5 500.9 58.5C498.3 58.5 496.5 58.6 493.4 58.7C493 58.5 492.9 57.5 493.3 57.2L494.6 57C498.2 56.6 498.3 55.7 498.3 49.2V27.5Z" fill="#002D73"/>
<path d="M551.2 48.1C551.2 49.9 551.2 57.2 551.4 58.8C551.3 59.2 550.9 59.5 550.2 59.5C549.5 58.5 547.7 56.3 542.4 50.3L528.2 34.2C526.6 32.3 522.4 27.3 521.1 26H521C520.8 26.7 520.7 28.1 520.7 30V43.3C520.7 46.2 520.8 54.1 521.8 55.9C522.2 56.6 523.4 56.9 524.9 57.1L526.8 57.3C527.2 57.8 527.1 58.5 526.7 58.8C524 58.7 521.8 58.6 519.6 58.6C517 58.6 515.4 58.7 513.2 58.8C512.8 58.5 512.7 57.6 513.1 57.3L514.8 57.1C516.2 56.9 517.2 56.5 517.5 55.9C518.4 53.7 518.3 46.2 518.3 43.3V25.6C518.3 23.9 518.2 22.6 517 21.2C516.1 20.3 514.7 19.9 513.2 19.7L512.2 19.6C511.8 19.2 511.8 18.3 512.3 18.1C514.9 18.3 518.1 18.3 519.2 18.3C520.2 18.3 521.2 18.2 522 18.1C523.2 21.2 530.4 29.3 532.4 31.5L538.3 38.2C542.5 42.9 545.5 46.3 548.4 49.3H548.5C548.7 49 548.7 48 548.7 46.7V33.6C548.7 30.7 548.6 22.8 547.5 21C547.1 20.5 546.2 20.1 543.7 19.8L542.7 19.7C542.3 19.3 542.3 18.4 542.8 18.2C545.6 18.3 547.7 18.4 550 18.4C552.6 18.4 554.2 18.3 556.3 18.2C556.8 18.5 556.8 19.4 556.4 19.7L555.5 19.8C553.5 20.1 552.3 20.6 552.1 21.1C551.1 23.3 551.2 30.9 551.2 33.7V48.1Z" fill="#002D73"/>
<path d="M567.3 59.5C562.2 59.5 558.9 57.9 557.8 57.2C557.1 55.9 556.3 51.5 556.1 48.6C556.4 48.2 557.3 48 557.6 48.4C558.5 51.5 561 57.5 568.1 57.5C573.2 57.5 575.7 54.1 575.7 50.5C575.7 47.8 575.1 44.8 570.7 41.9L564.9 38.1C561.8 36.1 558.3 32.6 558.3 27.6C558.3 21.8 562.8 17.1 570.8 17.1C572.7 17.1 574.9 17.5 576.5 17.9C577.3 18.1 578.1 18.3 578.6 18.3C579.2 19.8 579.7 23.2 579.7 25.8C579.5 26.2 578.5 26.4 578.2 26C577.4 23.1 575.8 19.1 569.9 19.1C563.9 19.1 562.6 23.1 562.6 25.9C562.6 29.4 565.5 32 567.8 33.4L572.7 36.5C576.5 38.9 580.3 42.4 580.3 48.2C580.3 54.9 575.2 59.5 567.3 59.5Z" fill="#002D73"/>
<path d="M115.5 99.4C115.3 98.7 115.2 98.6 114.2 98.6H109.4C108.6 98.6 108.4 98.7 108.2 99.4L107.1 102.7C106.6 104.1 106.4 105 106.4 105.3C106.4 105.7 106.6 105.9 107.3 105.9L108.3 106C108.5 106.2 108.5 106.7 108.2 106.8C107.4 106.7 106.4 106.7 104.9 106.7C103.9 106.7 102.7 106.8 101.9 106.8C101.7 106.7 101.7 106.2 101.8 106L102.8 105.9C103.6 105.8 104.3 105.5 104.7 104.4C105.3 103 106.2 100.9 107.5 97.4L110.7 88.9C111.1 87.8 111.3 87.2 111.2 86.7C112 86.5 112.5 85.9 112.8 85.5C113 85.5 113.2 85.6 113.3 85.8C113.7 87.2 114.2 88.6 114.7 90L119 102.7C119.9 105.4 120.3 105.9 121.7 106L122.6 106.1C122.8 106.3 122.8 106.8 122.6 106.9C121.3 106.8 120.2 106.8 118.8 106.8C117.3 106.8 116.1 106.9 115.2 106.9C114.9 106.8 114.9 106.3 115.1 106.1L116 106C116.7 105.9 117.1 105.7 117.1 105.4C117.1 105.1 116.9 104.5 116.7 103.7L115.5 99.4ZM109.3 96.6C109 97.3 109.1 97.4 110 97.4H113.9C114.8 97.4 114.9 97.3 114.6 96.4L112.9 91.3C112.6 90.5 112.4 89.7 112.2 89.3H112C111.9 89.5 111.6 90.2 111.2 91.2L109.3 96.6Z" fill="#002D73" stroke="#002D73" stroke-width="0.3819" stroke-miterlimit="10"/>
<path d="M130.6 102C130.6 105.3 130.7 105.7 132.7 105.9L133.6 106C133.8 106.2 133.7 106.7 133.5 106.8C131.7 106.7 130.7 106.7 129.4 106.7C128.1 106.7 126.9 106.7 125.5 106.8C125.3 106.7 125.2 106.2 125.4 106L126.1 105.9C127.9 105.6 128 105.3 128 102V90.3C128 87.6 127.9 87.1 126.5 86.9L125.4 86.8C125.2 86.6 125.2 86.1 125.5 86C127.2 85.8 129.1 85.7 131.8 85.7C134.4 85.7 136.4 86 137.9 87C139.4 87.9 140.4 89.6 140.4 91.7C140.4 94.6 138.6 96.1 137.2 96.7C135.8 97.4 134.1 97.6 132.8 97.6C132.6 97.5 132.6 97 132.8 97C136.2 96.4 137.4 94.4 137.4 91.7C137.4 88.6 135.6 86.6 132.3 86.6C130.6 86.6 130.6 86.7 130.6 87.7V102Z" fill="#002D73" stroke="#002D73" stroke-width="0.3819" stroke-miterlimit="10"/>
<path d="M148.7 102C148.7 105.3 148.8 105.7 150.8 105.9L151.7 106C151.9 106.2 151.8 106.7 151.6 106.8C149.8 106.7 148.8 106.7 147.5 106.7C146.2 106.7 145 106.7 143.6 106.8C143.4 106.7 143.3 106.2 143.5 106L144.2 105.9C146 105.6 146.1 105.3 146.1 102V90.3C146.1 87.6 146 87.1 144.6 86.9L143.5 86.8C143.3 86.6 143.3 86.1 143.6 86C145.3 85.8 147.2 85.7 149.9 85.7C152.5 85.7 154.5 86 156 87C157.5 87.9 158.5 89.6 158.5 91.7C158.5 94.6 156.7 96.1 155.3 96.7C153.9 97.4 152.2 97.6 150.9 97.6C150.7 97.5 150.7 97 150.9 97C154.3 96.4 155.5 94.4 155.5 91.7C155.5 88.6 153.7 86.6 150.4 86.6C148.7 86.6 148.7 86.7 148.7 87.7V102Z" fill="#002D73" stroke="#002D73" stroke-width="0.3819" stroke-miterlimit="10"/>
<path d="M164.2 90.6C164.2 87.3 164.1 86.8 162.1 86.6L161.3 86.5C161.1 86.4 161.2 85.8 161.4 85.7C163.2 85.8 164.2 85.8 165.5 85.8C166.7 85.8 167.8 85.8 169.4 85.7C169.6 85.8 169.7 86.4 169.5 86.5L168.7 86.6C166.8 86.8 166.8 87.3 166.8 90.6V101.6C166.8 103.6 166.9 104.4 167.5 105C167.8 105.3 168.4 105.7 170.9 105.7C173.6 105.7 174.2 105.6 174.8 105.3C175.4 104.9 176.3 103.8 176.9 102.2C177.1 102 177.7 102.2 177.7 102.4C177.7 102.7 176.8 106 176.4 106.8C174.8 106.7 171.8 106.7 168.5 106.7H165.6C164.3 106.7 163.3 106.7 161.5 106.8C161.3 106.7 161.2 106.2 161.4 106L162.3 105.9C164.1 105.7 164.2 105.3 164.2 102V90.6Z" fill="#002D73" stroke="#002D73" stroke-width="0.3819" stroke-miterlimit="10"/>
<path d="M183.2 90.7C183.2 87.4 183.1 86.8 181.3 86.7L180.5 86.6C180.3 86.5 180.4 85.9 180.6 85.8C182.2 85.9 183.3 85.9 184.6 85.9C185.9 85.9 186.9 85.9 188.5 85.8C188.7 85.9 188.8 86.5 188.6 86.6L187.8 86.7C185.9 86.9 185.9 87.4 185.9 90.7V101.9C185.9 105.2 186 105.7 187.8 105.9L188.6 106C188.8 106.1 188.7 106.7 188.5 106.8C186.9 106.7 185.8 106.7 184.6 106.7C183.3 106.7 182.2 106.7 180.6 106.8C180.4 106.7 180.3 106.2 180.5 106L181.3 105.9C183.2 105.7 183.2 105.2 183.2 101.9V90.7Z" fill="#002D73" stroke="#002D73" stroke-width="0.3819" stroke-miterlimit="10"/>
<path d="M195.4 90.6C195.4 87.3 195.3 86.8 193.5 86.6L193 86.5C192.8 86.4 192.9 85.8 193.1 85.7C194.5 85.8 195.5 85.8 196.8 85.8H202.7C204.7 85.8 206.6 85.8 207 85.7C207.2 86.2 207.4 88.5 207.5 89.9C207.4 90.1 206.9 90.2 206.7 90C206.2 88.5 205.9 87.4 204.3 87C203.6 86.8 202.6 86.8 201.2 86.8H199C198.1 86.8 198.1 86.9 198.1 88.1V94.4C198.1 95.3 198.2 95.3 199.1 95.3H200.9C202.2 95.3 203.2 95.2 203.6 95.1C204 95 204.2 94.8 204.4 94L204.7 92.7C204.9 92.5 205.4 92.5 205.5 92.7C205.5 93.5 205.4 94.7 205.4 95.9C205.4 97 205.5 98.2 205.5 98.9C205.4 99.1 204.8 99.1 204.7 98.9L204.4 97.7C204.3 97.1 204.1 96.7 203.4 96.5C203 96.4 202.2 96.3 201 96.3H199.2C198.3 96.3 198.2 96.3 198.2 97.2V101.7C198.2 103.4 198.3 104.4 198.8 105C199.2 105.4 199.8 105.7 202.6 105.7C205 105.7 205.9 105.6 206.6 105.2C207.2 104.9 208 103.8 208.8 102.1C209 101.9 209.5 102 209.6 102.3C209.4 103.4 208.6 105.8 208.2 106.7C205.4 106.6 202.5 106.6 199.7 106.6H196.9C195.5 106.6 194.5 106.6 192.6 106.7C192.4 106.6 192.3 106.1 192.5 105.9L193.5 105.8C195.3 105.6 195.5 105.2 195.5 101.9V90.6H195.4Z" fill="#002D73" stroke="#002D73" stroke-width="0.3819" stroke-miterlimit="10"/>
<path d="M215.5 90C215.5 87.8 215.3 87.1 214 86.9L213.3 86.8C213 86.6 213 86.1 213.3 86C216 85.8 218.5 85.7 221.2 85.7C223.9 85.7 226.1 85.9 228.1 86.6C232.4 88.1 234.5 91.7 234.5 95.9C234.5 99.9 232.6 103.4 229 105.3C226.9 106.4 224.4 106.8 221.9 106.8C219.9 106.8 217.9 106.5 216.7 106.5C215.4 106.5 214.2 106.5 212.8 106.6C212.6 106.5 212.5 106 212.7 105.8L213.4 105.7C215.2 105.4 215.3 105.1 215.3 101.8V90H215.5ZM218 101.2C218 102.9 218.1 103.9 218.6 104.6C219.3 105.6 220.5 105.9 222.5 105.9C228.6 105.9 231.4 101.9 231.4 96C231.4 92.5 229.7 86.6 221.5 86.6C219.6 86.6 218.6 86.9 218.4 87C218.1 87.2 218.1 88 218.1 89.4V101.2H218Z" fill="#002D73" stroke="#002D73" stroke-width="0.3819" stroke-miterlimit="10"/>
<path d="M253.7 102C253.7 105.3 253.8 105.7 255.8 105.9L256.7 106C256.9 106.2 256.8 106.7 256.6 106.8C254.8 106.7 253.8 106.7 252.5 106.7C251.2 106.7 250 106.7 248.6 106.8C248.4 106.7 248.3 106.2 248.5 106L249.2 105.9C251 105.6 251.1 105.3 251.1 102V90.3C251.1 87.6 251 87.1 249.6 86.9L248.5 86.8C248.3 86.6 248.3 86.1 248.6 86C250.3 85.8 252.2 85.7 254.9 85.7C257.5 85.7 259.5 86 261 87C262.5 87.9 263.5 89.6 263.5 91.7C263.5 94.6 261.7 96.1 260.3 96.7C258.9 97.4 257.2 97.6 255.9 97.6C255.7 97.5 255.7 97 255.9 97C259.3 96.4 260.5 94.4 260.5 91.7C260.5 88.6 258.7 86.6 255.4 86.6C253.7 86.6 253.7 86.7 253.7 87.7V102Z" fill="#002D73" stroke="#002D73" stroke-width="0.3819" stroke-miterlimit="10"/>
<path d="M273.8 96.5C272.3 96.5 272.2 96.6 272.2 97.5V102C272.2 105.3 272.4 105.8 274.1 105.9L275 106C275.2 106.1 275.1 106.7 274.9 106.8C273.2 106.7 272.1 106.7 270.9 106.7C269.5 106.7 268.5 106.8 267.2 106.8C267 106.7 266.9 106.2 267.1 106L267.6 105.9C269.4 105.6 269.4 105.3 269.4 102V90.6C269.4 87.3 269.2 86.7 267.5 86.6L266.7 86.5C266.5 86.4 266.6 85.8 266.8 85.7C268.3 85.7 269.4 85.8 270.8 85.8C272 85.8 273.1 85.8 274.5 85.7C274.7 85.8 274.8 86.4 274.6 86.5L274 86.6C272.2 86.8 272.1 87.3 272.1 90.6V94.2C272.1 95.2 272.2 95.2 273.7 95.2H282.7C284.2 95.2 284.3 95.2 284.3 94.2V90.6C284.3 87.3 284.2 86.8 282.4 86.6L281.8 86.5C281.6 86.4 281.7 85.8 281.9 85.7C283.4 85.8 284.4 85.8 285.7 85.8C286.9 85.8 288 85.8 289.4 85.7C289.6 85.8 289.7 86.4 289.5 86.5L288.8 86.6C287 86.8 286.9 87.3 286.9 90.6V102C286.9 105.3 287 105.7 288.8 105.9L289.6 106C289.8 106.1 289.7 106.7 289.5 106.8C288 106.7 286.9 106.7 285.7 106.7C284.4 106.7 283.3 106.7 281.9 106.8C281.7 106.7 281.6 106.2 281.8 106L282.4 105.9C284.3 105.6 284.3 105.3 284.3 102V97.5C284.3 96.6 284.2 96.5 282.7 96.5H273.8Z" fill="#002D73" stroke="#002D73" stroke-width="0.3819" stroke-miterlimit="10"/>
<path d="M303.2 101.9C303.2 105.3 303.4 105.8 305.1 105.9L306.3 106C306.5 106.2 306.4 106.7 306.2 106.8C304.2 106.7 303.2 106.7 301.9 106.7C300.6 106.7 299.4 106.7 297.8 106.8C297.6 106.7 297.5 106.2 297.7 106L298.7 105.9C300.5 105.7 300.6 105.3 300.6 101.9V100.3C300.6 98.6 300.5 98.2 299.6 96.4L295.9 89.1C294.8 87 294.4 86.9 293.4 86.7L292.5 86.5C292.3 86.3 292.3 85.8 292.6 85.7C293.6 85.8 294.7 85.8 296.3 85.8C297.8 85.8 298.9 85.8 299.7 85.7C300 85.8 300 86.3 299.8 86.5L299.4 86.6C298.3 86.8 298.1 86.9 298.1 87.2C298.1 87.5 298.9 89.3 299.1 89.6C300.3 91.9 301.4 94.4 302.7 96.6C303.7 94.9 304.7 93.1 305.7 91.3C306.6 89.7 307.8 87.5 307.8 87.1C307.8 86.9 307.2 86.7 306.5 86.6L305.9 86.5C305.7 86.3 305.7 85.8 306 85.7C307.1 85.8 308.1 85.8 309 85.8C310 85.8 310.9 85.8 311.9 85.7C312.2 85.9 312.2 86.3 312 86.5L311.1 86.7C309.5 87 308.5 89 306.9 91.7L304.9 95.1C303.5 97.5 303.4 97.8 303.4 100.2V101.9H303.2Z" fill="#002D73" stroke="#002D73" stroke-width="0.3819" stroke-miterlimit="10"/>
<path d="M319.3 107.2C316.6 107.2 315 106.4 314.4 106C314 105.3 313.6 103.1 313.5 101.6C313.7 101.4 314.1 101.3 314.3 101.5C314.8 103.1 316.1 106.2 319.7 106.2C322.4 106.2 323.6 104.5 323.6 102.6C323.6 101.2 323.3 99.7 321 98.2L318 96.2C316.4 95.2 314.6 93.4 314.6 90.8C314.6 87.8 316.9 85.4 321 85.4C322 85.4 323.1 85.6 323.9 85.8C324.3 85.9 324.8 86 325 86C325.3 86.8 325.6 88.5 325.6 89.9C325.5 90.1 325 90.2 324.8 90C324.4 88.5 323.5 86.4 320.5 86.4C317.4 86.4 316.7 88.5 316.7 89.9C316.7 91.7 318.2 93.1 319.4 93.8L321.9 95.4C323.9 96.6 325.8 98.5 325.8 101.5C326 104.8 323.4 107.2 319.3 107.2Z" fill="#002D73" stroke="#002D73" stroke-width="0.3819" stroke-miterlimit="10"/>
<path d="M333.3 90.7C333.3 87.4 333.2 86.8 331.4 86.7L330.6 86.6C330.4 86.5 330.5 85.9 330.7 85.8C332.3 85.9 333.4 85.9 334.7 85.9C336 85.9 337 85.9 338.6 85.8C338.8 85.9 338.9 86.5 338.7 86.6L337.9 86.7C336 86.9 336 87.4 336 90.7V101.9C336 105.2 336.1 105.7 337.9 105.9L338.7 106C338.9 106.1 338.8 106.7 338.6 106.8C337 106.7 335.9 106.7 334.7 106.7C333.4 106.7 332.3 106.7 330.7 106.8C330.5 106.7 330.4 106.2 330.6 106L331.4 105.9C333.3 105.7 333.3 105.2 333.3 101.9V90.7Z" fill="#002D73" stroke="#002D73" stroke-width="0.3819" stroke-miterlimit="10"/>
<path d="M345.3 88C347.6 86.2 350.5 85.3 353.8 85.3C355.5 85.3 357.9 85.6 359.4 86.1C359.8 86.2 360 86.3 360.3 86.2C360.3 86.9 360.5 88.9 360.7 90.8C360.5 91 360.1 91.1 359.8 90.9C359.3 88.8 357.9 86.3 353.3 86.3C348.5 86.3 344.4 89.4 344.4 95.9C344.4 102.5 348.6 106.2 353.8 106.2C357.9 106.2 359.7 103.5 360.4 101.7C360.6 101.5 361.1 101.6 361.2 101.8C361 103.4 360.2 105.5 359.7 106.1C359.3 106.2 358.9 106.3 358.6 106.4C357.9 106.7 355.6 107.1 353.6 107.1C350.8 107.1 348 106.5 345.7 105C343.2 103.3 341.2 100.4 341.2 96.3C341.3 92.9 342.9 89.9 345.3 88Z" fill="#002D73" stroke="#002D73" stroke-width="0.3819" stroke-miterlimit="10"/>
<path d="M370.5 107.2C367.8 107.2 366.2 106.4 365.6 106C365.2 105.3 364.8 103.1 364.7 101.6C364.9 101.4 365.3 101.3 365.5 101.5C366 103.1 367.3 106.2 370.9 106.2C373.6 106.2 374.8 104.5 374.8 102.6C374.8 101.2 374.5 99.7 372.2 98.2L369.2 96.2C367.6 95.2 365.8 93.4 365.8 90.8C365.8 87.8 368.1 85.4 372.2 85.4C373.2 85.4 374.3 85.6 375.1 85.8C375.5 85.9 376 86 376.2 86C376.5 86.8 376.8 88.5 376.8 89.9C376.7 90.1 376.2 90.2 376 90C375.6 88.5 374.7 86.4 371.7 86.4C368.6 86.4 367.9 88.5 367.9 89.9C367.9 91.7 369.4 93.1 370.6 93.8L373.1 95.4C375.1 96.6 377 98.5 377 101.5C377.2 104.8 374.6 107.2 370.5 107.2Z" fill="#002D73" stroke="#002D73" stroke-width="0.3819" stroke-miterlimit="10"/>
<path d="M393.9 90.6C393.9 87.3 393.8 86.8 391.8 86.6L391 86.5C390.8 86.4 390.9 85.8 391.1 85.7C392.9 85.8 393.9 85.8 395.2 85.8C396.4 85.8 397.5 85.8 399.1 85.7C399.3 85.8 399.4 86.4 399.2 86.5L398.4 86.6C396.5 86.8 396.5 87.3 396.5 90.6V101.6C396.5 103.6 396.6 104.4 397.2 105C397.5 105.3 398.1 105.7 400.6 105.7C403.3 105.7 403.9 105.6 404.5 105.3C405.1 104.9 406 103.8 406.6 102.2C406.8 102 407.4 102.2 407.4 102.4C407.4 102.7 406.5 106 406.1 106.8C404.5 106.7 401.5 106.7 398.2 106.7H395.3C394 106.7 393 106.7 391.2 106.8C391 106.7 390.9 106.2 391.1 106L392 105.9C393.8 105.7 393.9 105.3 393.9 102V90.6Z" fill="#002D73" stroke="#002D73" stroke-width="0.3819" stroke-miterlimit="10"/>
<path d="M422.2 99.4C422 98.7 421.9 98.6 420.9 98.6H416.1C415.3 98.6 415.1 98.7 414.9 99.4L413.8 102.7C413.3 104.1 413.1 105 413.1 105.3C413.1 105.7 413.3 105.9 414 105.9L415 106C415.2 106.2 415.2 106.7 414.9 106.8C414.1 106.7 413.1 106.7 411.6 106.7C410.6 106.7 409.4 106.8 408.6 106.8C408.4 106.7 408.3 106.2 408.5 106L409.5 105.9C410.3 105.8 411 105.5 411.4 104.4C412 103 412.9 100.9 414.2 97.4L417.4 88.9C417.8 87.8 418 87.2 417.9 86.7C418.7 86.5 419.2 85.9 419.5 85.5C419.7 85.5 419.9 85.6 420 85.8C420.4 87.2 420.9 88.6 421.4 90L425.7 102.7C426.6 105.4 427 105.9 428.4 106L429.3 106.1C429.5 106.3 429.5 106.8 429.3 106.9C428 106.8 426.9 106.8 425.5 106.8C424 106.8 422.8 106.9 421.9 106.9C421.6 106.8 421.6 106.3 421.8 106.1L422.7 106C423.4 105.9 423.8 105.7 423.8 105.4C423.8 105.1 423.6 104.5 423.4 103.7L422.2 99.4ZM415.9 96.6C415.6 97.3 415.7 97.4 416.6 97.4H420.5C421.4 97.4 421.5 97.3 421.2 96.4L419.5 91.3C419.2 90.5 419 89.7 418.8 89.3H418.7C418.6 89.5 418.3 90.2 417.9 91.2L415.9 96.6Z" fill="#002D73" stroke="#002D73" stroke-width="0.3819" stroke-miterlimit="10"/>
<path d="M434.6 90C434.6 87.7 434.5 87.1 433.1 86.9L432.1 86.8C431.8 86.6 431.9 86.1 432.1 86C433.8 85.8 436 85.7 438.9 85.7C440.9 85.7 442.8 85.9 444.2 86.6C445.6 87.3 446.6 88.5 446.6 90.5C446.6 92.8 445.3 93.9 443.4 94.8C443.4 95.1 443.7 95.2 444 95.3C445.7 95.6 448.2 97.2 448.2 100.6C448.2 104.3 445.5 106.7 439.8 106.7C438.9 106.7 437.3 106.6 436 106.6C434.6 106.6 433.5 106.7 432.4 106.7C432.2 106.6 432.1 106.1 432.3 105.9L432.9 105.8C434.6 105.5 434.6 105.2 434.6 101.9V90ZM437.2 94.2C437.2 95.1 437.2 95.1 438.8 95.1C442 95 443.8 94 443.8 91.1C443.8 88 441.5 86.8 439.1 86.8C438.4 86.8 437.9 86.9 437.6 87C437.3 87.1 437.2 87.3 437.2 87.8V94.2ZM437.2 101.5C437.2 102.6 437.3 104.2 437.9 104.9C438.5 105.6 439.4 105.8 440.4 105.8C443.2 105.8 445.4 104.5 445.4 101.4C445.4 98.9 444.1 96 439.1 96C437.4 96 437.3 96.2 437.3 96.8V101.5H437.2Z" fill="#002D73" stroke="#002D73" stroke-width="0.3819" stroke-miterlimit="10"/>
<path d="M451.9 96.5C451.9 90.2 456.6 85.4 463.1 85.4C470.4 85.4 474.1 90.7 474.1 96.2C474.1 102.6 469.2 107.2 463.1 107.2C456.1 107.2 451.9 102.2 451.9 96.5ZM470.9 97.2C470.9 92 468.6 86.4 462.6 86.4C459.3 86.4 455.1 88.6 455.1 95.6C455.1 100.3 457.4 106.3 463.6 106.3C467.3 106.2 470.9 103.4 470.9 97.2Z" fill="#002D73" stroke="#002D73" stroke-width="0.3819" stroke-miterlimit="10"/>
<path d="M479.5 90.6C479.5 87.6 479.4 87.1 478.1 86.9L477.1 86.8C476.9 86.6 476.9 86.1 477.1 86C478.9 85.8 481 85.7 484.1 85.7C486.1 85.7 487.9 85.9 489.4 86.6C490.9 87.4 492 88.8 492 91C492 94 489.6 95.6 488.1 96.3C487.9 96.5 488.1 96.8 488.3 97.1C490.8 101.2 492.5 103.7 494.6 105.5C495.1 106 495.9 106.3 496.8 106.4C497 106.5 497 106.7 496.8 106.8C496.5 106.9 496 107 495.4 107C492.7 107 491.1 106.2 488.9 103C488.1 101.8 486.8 99.7 485.8 98.2C485.3 97.5 484.8 97.2 483.6 97.2C482.2 97.2 482.1 97.2 482.1 97.9V101.9C482.1 105.2 482.2 105.6 484 105.8L484.7 105.9C484.9 106.1 484.8 106.6 484.6 106.7C483.2 106.6 482.1 106.6 480.8 106.6C479.5 106.6 478.3 106.6 476.9 106.7C476.7 106.6 476.6 106.1 476.8 105.9L477.6 105.8C479.4 105.6 479.5 105.2 479.5 101.9V90.6ZM482.1 95.1C482.1 95.7 482.1 96 482.2 96.1C482.3 96.2 482.8 96.3 484.4 96.3C485.5 96.3 486.7 96.2 487.7 95.5C488.6 94.8 489.3 93.7 489.3 91.6C489.3 89.1 487.8 86.7 484.2 86.7C482.2 86.7 482.1 86.8 482.1 87.7V95.1Z" fill="#002D73" stroke="#002D73" stroke-width="0.3819" stroke-miterlimit="10"/>
<path d="M510.3 99.4C510.1 98.7 510 98.6 509 98.6H504.2C503.4 98.6 503.2 98.7 503 99.4L501.9 102.7C501.4 104.1 501.2 105 501.2 105.3C501.2 105.7 501.4 105.9 502.1 105.9L503.1 106C503.3 106.2 503.3 106.7 503 106.8C502.2 106.7 501.2 106.7 499.7 106.7C498.7 106.7 497.5 106.8 496.7 106.8C496.5 106.7 496.4 106.2 496.6 106L497.6 105.9C498.4 105.8 499.1 105.5 499.5 104.4C500.1 103 501 100.9 502.3 97.4L505.5 88.9C505.9 87.8 506.1 87.2 506 86.7C506.8 86.5 507.3 85.9 507.6 85.5C507.8 85.5 508 85.6 508.1 85.8C508.5 87.2 509 88.6 509.5 90L513.8 102.7C514.7 105.4 515.1 105.9 516.5 106L517.4 106.1C517.6 106.3 517.6 106.8 517.4 106.9C516.1 106.8 515 106.8 513.6 106.8C512.1 106.8 510.9 106.9 510 106.9C509.7 106.8 509.7 106.3 509.9 106.1L510.8 106C511.5 105.9 511.9 105.7 511.9 105.4C511.9 105.1 511.7 104.5 511.5 103.7L510.3 99.4ZM504 96.6C503.7 97.3 503.8 97.4 504.7 97.4H508.6C509.5 97.4 509.6 97.3 509.3 96.4L507.6 91.3C507.3 90.5 507.1 89.7 506.9 89.3H506.8C506.7 89.5 506.4 90.2 506 91.2L504 96.6Z" fill="#002D73" stroke="#002D73" stroke-width="0.3819" stroke-miterlimit="10"/>
<path d="M527.1 102C527.1 105.3 527.2 105.8 529 105.9L530 106C530.2 106.1 530.1 106.7 529.9 106.8C528.1 106.7 527 106.7 525.8 106.7C524.6 106.7 523.4 106.7 521.4 106.8C521.2 106.7 521.1 106.2 521.4 106L522.5 105.9C524.3 105.7 524.5 105.3 524.5 102V87.9C524.5 86.9 524.5 86.9 523.6 86.9H521.9C520.5 86.9 518.8 87 518 87.7C517.2 88.4 516.9 89.1 516.6 89.9C516.3 90.1 515.9 89.9 515.8 89.7C516.3 88.3 516.8 86.3 517 85C517.1 84.9 517.5 84.9 517.6 85C517.8 86 518.8 86 520.3 86H533C534.7 86 535 85.9 535.5 85.1C535.7 85 536 85.1 536.1 85.2C535.8 86.5 535.5 89.1 535.6 90C535.5 90.3 534.9 90.3 534.8 90.1C534.7 89.3 534.5 88.1 534 87.8C533.3 87.3 532.1 87 530.3 87H528C527.1 87 527.1 87 527.1 88.1V102Z" fill="#002D73" stroke="#002D73" stroke-width="0.3819" stroke-miterlimit="10"/>
<path d="M537.7 96.5C537.7 90.2 542.4 85.4 548.9 85.4C556.2 85.4 559.9 90.7 559.9 96.2C559.9 102.6 555 107.2 548.9 107.2C542 107.2 537.7 102.2 537.7 96.5ZM556.8 97.2C556.8 92 554.5 86.4 548.5 86.4C545.2 86.4 541 88.6 541 95.6C541 100.3 543.3 106.3 549.5 106.3C553.2 106.2 556.8 103.4 556.8 97.2Z" fill="#002D73" stroke="#002D73" stroke-width="0.3819" stroke-miterlimit="10"/>
<path d="M566.2 90.6C566.2 87.6 566.1 87.1 564.8 86.9L563.8 86.8C563.6 86.6 563.6 86.1 563.8 86C565.6 85.8 567.7 85.7 570.8 85.7C572.8 85.7 574.6 85.9 576.1 86.6C577.6 87.4 578.7 88.8 578.7 91C578.7 94 576.3 95.6 574.8 96.3C574.6 96.5 574.8 96.8 575 97.1C577.5 101.2 579.2 103.7 581.3 105.5C581.8 106 582.6 106.3 583.5 106.4C583.7 106.5 583.7 106.7 583.5 106.8C583.2 106.9 582.7 107 582.1 107C579.4 107 577.8 106.2 575.6 103C574.8 101.8 573.5 99.7 572.5 98.2C572 97.5 571.5 97.2 570.3 97.2C568.9 97.2 568.8 97.2 568.8 97.9V101.9C568.8 105.2 568.9 105.6 570.7 105.8L571.4 105.9C571.6 106.1 571.5 106.6 571.3 106.7C569.9 106.6 568.8 106.6 567.5 106.6C566.2 106.6 565 106.6 563.6 106.7C563.4 106.6 563.3 106.1 563.5 105.9L564.3 105.8C566.1 105.6 566.2 105.2 566.2 101.9V90.6ZM568.8 95.1C568.8 95.7 568.8 96 568.9 96.1C569 96.2 569.5 96.3 571.1 96.3C572.2 96.3 573.4 96.2 574.4 95.5C575.3 94.8 576 93.7 576 91.6C576 89.1 574.5 86.7 570.9 86.7C568.9 86.7 568.8 86.8 568.8 87.7V95.1Z" fill="#002D73" stroke="#002D73" stroke-width="0.3819" stroke-miterlimit="10"/>
<path d="M592.3 101.9C592.3 105.3 592.5 105.8 594.2 105.9L595.4 106C595.6 106.2 595.5 106.7 595.3 106.8C593.3 106.7 592.3 106.7 591 106.7C589.7 106.7 588.5 106.7 586.9 106.8C586.7 106.7 586.6 106.2 586.8 106L587.8 105.9C589.6 105.7 589.7 105.3 589.7 101.9V100.3C589.7 98.6 589.6 98.2 588.7 96.4L585 89.1C583.9 87 583.5 86.9 582.5 86.7L581.6 86.5C581.4 86.3 581.4 85.8 581.7 85.7C582.7 85.8 583.8 85.8 585.4 85.8C586.9 85.8 588 85.8 588.8 85.7C589.1 85.8 589.1 86.3 588.9 86.5L588.5 86.6C587.4 86.8 587.2 86.9 587.2 87.2C587.2 87.5 588 89.3 588.2 89.6C589.4 91.9 590.5 94.4 591.8 96.6C592.8 94.9 593.8 93.1 594.8 91.3C595.7 89.7 596.9 87.5 596.9 87.1C596.9 86.9 596.3 86.7 595.6 86.6L595 86.5C594.8 86.3 594.8 85.8 595.1 85.7C596.2 85.8 597.2 85.8 598.1 85.8C599 85.8 600 85.8 601 85.7C601.3 85.9 601.3 86.3 601.1 86.5L600.2 86.7C598.6 87 597.6 89 596 91.7L594 95.1C592.6 97.5 592.5 97.8 592.5 100.2V101.9H592.3Z" fill="#002D73" stroke="#002D73" stroke-width="0.3819" stroke-miterlimit="10"/>
</g>
<defs>
<clipPath id="clip0_1_3">
<rect width="602" height="111" fill="white"/>
</clipPath>
</defs>
</svg>
