<svg width="104" height="111" viewBox="0 0 104 111" fill="none" xmlns="http://www.w3.org/2000/svg">
<g clip-path="url(#clip0_1_3)">
<path d="M36.5 48.6V32C31.1 36.4 26.8 42 24 48.5H36.5V48.6Z" fill="#002D73"/>
<path d="M50.5 27.9V48.7C56.2 48.7 60.9 44 60.9 38.3C60.8 32.6 56.2 28 50.5 27.9Z" fill="#002D73"/>
<path d="M101.4 5.39999C85.5 1.99999 69.1 0.200012 52.2 0.200012C35.3 0.200012 18.8 1.99999 3 5.39999H2.9C1.8 5.69999 0.9 6.69999 0.9 7.89999V16.8C0.9 75.7 35.8 102.3 50.8 110.2C51.8 110.7 52.5 110.7 53.4 110.2C68.4 102.2 103.4 75.7 103.4 16.8V7.89999C103.5 6.69999 102.6 5.59999 101.4 5.39999ZM41.5 65.2H36.5V53.8H22.2C21.2 57.4 20.6 61.3 20.6 65.2H15.7C15.7 46.8 26.2 30.8 41.5 23V65.2ZM50.5 53.7V65.1H45.5V22.9H50.5C59 22.9 65.9 29.8 65.9 38.3C65.8 46.8 58.9 53.7 50.5 53.7ZM89.6 65.2H73.4H68.7H68.4V23H73.4V60.4H89.6V65.2Z" fill="#002D73"/>
</g>
<defs>
<clipPath id="clip0_1_3">
<rect width="104" height="111" fill="white"/>
</clipPath>
</defs>
</svg>
