<svg width="358" height="77" viewBox="0 0 358 77" fill="none" xmlns="http://www.w3.org/2000/svg">
<g clip-path="url(#clip0_3_113)">
<path d="M69.464 32.6433C73.0375 32.6433 76.8777 31.8699 80.5046 29.7098C80.5046 29.7098 80.9847 22.936 80.9047 23.1227C78.0512 29.3897 73.1442 30.1364 71.0908 30.1364C62.1303 30.1364 59.1435 22.4027 59.1435 16.1357C59.1435 8.77527 63.357 3.04162 70.7708 3.04162C72.8509 3.04162 77.9445 3.68165 80.5846 10.0553C80.6646 10.242 80.1846 2.96161 80.1846 2.96161C76.7978 1.30819 73.5442 0.588146 69.9707 0.588146C58.9301 0.588146 53.3031 8.72193 53.3031 16.749C53.3031 26.4562 60.9035 32.6433 69.464 32.6433ZM120.88 32.1632H128.747C128.001 31.7632 127.627 31.0965 127.627 30.1098V3.09495C127.627 2.05489 128.027 1.41486 128.747 1.04151H120.88C121.574 1.41486 122 2.05489 122 3.09495V30.1098C122.027 31.1232 121.574 31.7632 120.88 32.1632ZM86.9316 32.1632H94.7987C94.052 31.7632 93.6787 31.0965 93.6787 30.1098V16.109H107.173V30.1098C107.173 31.1232 106.746 31.7632 106.026 32.1632H113.893C113.146 31.7632 112.666 31.0965 112.666 30.1098V3.09495C112.666 2.05489 113.146 1.41486 113.893 1.04151H106.026C106.719 1.41486 107.173 2.05489 107.173 3.09495V13.8422H93.6787V3.09495C93.6787 2.05489 94.0787 1.41486 94.7987 1.04151H86.9316C87.625 1.41486 88.0517 2.05489 88.0517 3.09495V30.1098C88.0517 31.1232 87.625 31.7632 86.9316 32.1632ZM1.72693 3.09495V30.1098C1.72693 31.1232 1.2469 31.7632 0.606865 32.1632H5.4338C4.68709 31.7632 4.20707 31.0965 4.20707 30.1098V7.81522C4.20707 7.41519 4.20707 6.58848 4.20707 6.58848L4.50042 7.81522L15.0077 32.8033L25.4349 7.0685L25.8349 6.02845C25.8349 6.02845 25.7549 6.53514 25.7549 7.0685V30.0831C25.7549 31.0965 25.3282 31.7365 24.6349 32.1366H32.3953C31.7019 31.7365 31.2752 31.0698 31.2752 30.0831V3.09495C31.2752 2.05489 31.7019 1.41486 32.3953 1.04151H25.0616L16.6878 22.056L7.99393 1.04151H0.340187C1.03356 1.41486 1.72693 2.24157 1.72693 3.09495ZM39.409 32.1632H47.2761C46.5294 31.7632 46.1561 31.0965 46.1561 30.1098V3.09495C46.1561 2.05489 46.5561 1.41486 47.2761 1.04151H39.409C40.1024 1.41486 40.5291 2.05489 40.5291 3.09495V30.1098C40.5558 31.1232 40.1291 31.7632 39.409 32.1632ZM151.069 32.6433C154.535 32.6433 160.722 31.4699 164.349 29.3097C164.136 29.1764 163.656 28.3497 163.656 27.443V20.6693C163.656 19.6025 164.136 18.9625 164.776 18.5625H157.016C157.709 18.9625 158.136 19.6025 158.136 20.6693V28.643C156.082 30.0564 153.522 30.1364 152.615 30.1364C143.628 30.1364 140.668 22.4027 140.668 16.1357C140.668 8.77527 144.935 3.04162 152.295 3.04162C154.349 3.04162 159.842 4.00167 162.056 10.2153L161.762 2.93494C158.322 1.38819 155.122 0.561478 151.549 0.561478C140.428 0.561478 134.748 8.69526 134.748 16.7224C134.774 26.4562 142.428 32.6433 151.069 32.6433ZM282.036 32.1632H288.036C286.863 31.6032 286.649 30.9898 287.049 29.8698C287.129 29.3631 288.17 26.6696 289.476 23.5494H300.117C301.344 26.6696 302.464 29.4431 302.597 29.9231C302.89 30.8832 302.677 31.5232 301.557 32.1632H310.837C309.397 31.3899 309.104 30.8832 308.677 29.9231C307.904 28.1897 296.33 0.0814514 296.33 0.0814514C296.33 0.0814514 284.916 28.1897 284.089 29.9231C283.636 30.8032 283.263 31.3098 282.036 32.1632ZM294.677 9.97533C294.677 9.97533 297.05 16.109 299.103 21.2026H290.33C291.716 17.7624 294.677 9.97533 294.677 9.97533ZM309.691 3.65498C309.691 3.65498 313.424 3.33496 316.651 3.33496V30.1098C316.651 31.1232 316.224 31.7632 315.531 32.1632H323.291C322.651 31.7632 322.171 31.0965 322.171 30.1098V3.33496C325.345 3.33496 329.292 3.65498 329.292 3.65498C330.332 3.76166 330.945 4.72171 331.319 5.49509V1.04151H307.531V5.49509C307.931 4.69504 308.651 3.65498 309.691 3.65498ZM336.012 32.1632H354.68L355.587 26.9096C353.987 29.7898 352.253 29.7098 348.466 29.7898C346.333 29.8964 343.693 29.7098 342.813 29.5498V16.109H349.373C349.986 16.109 350.706 16.8024 350.946 17.4424V12.5888C350.733 13.1488 349.986 13.8689 349.373 13.8689H342.813V3.33496C342.813 3.33496 348.893 3.33496 350.2 3.41497C351.853 3.49497 352.76 3.86833 353.587 5.06839L353.453 1.04151H335.985C336.679 1.41486 337.292 2.05489 337.292 3.09495V30.1098C337.319 31.2032 336.759 31.7099 336.012 32.1632ZM264.408 3.65498C264.408 3.65498 268.142 3.33496 271.342 3.33496V30.1098C271.342 31.1232 270.915 31.7632 270.222 32.1632H277.982C277.342 31.7632 276.862 31.0965 276.862 30.1098V3.33496C280.036 3.33496 283.983 3.65498 283.983 3.65498C285.023 3.76166 285.636 4.72171 286.036 5.49509V1.04151H262.248V5.49509C262.621 4.69504 263.368 3.65498 264.408 3.65498ZM198.698 2.8016C199.525 3.86833 199.471 3.895 199.471 5.68176V30.1098C199.471 31.1232 198.991 31.7632 198.324 32.1632H203.151C202.405 31.7632 201.925 31.0965 201.925 30.1098V7.17518C201.925 7.54853 222.779 33.4433 222.779 33.4433V3.09495C222.779 2.05489 223.259 1.41486 223.899 1.04151H219.072C219.766 1.41486 220.192 2.05489 220.192 3.09495V21.176L204.165 1.04151H196.698C197.658 1.60154 198.271 2.24157 198.698 2.8016ZM248.807 30.2431C244.3 30.2431 241.687 25.9496 240.86 22.696L241.074 30.4298C242.594 31.2032 245.447 32.6166 249.421 32.6166C254.754 32.6166 259.555 28.723 259.555 23.0161C259.555 16.6424 255.341 15.149 251.314 13.1222C247.234 11.1487 245.367 10.1087 245.367 7.30852C245.367 5.33507 246.674 2.90828 249.954 2.90828C254.141 2.90828 256.594 6.56181 257.208 8.98861L256.994 2.2149C254.781 0.854828 251.901 0.534809 250.434 0.534809C246.487 0.534809 240.967 3.01495 240.967 9.22863C240.967 12.6955 242.7 15.1756 246.701 17.5224C250.647 19.7625 254.434 20.3492 254.434 24.7495C254.408 27.0163 253.101 30.2431 248.807 30.2431ZM171.87 29.8964C171.95 29.3897 172.99 26.6963 174.297 23.5761H184.937C186.164 26.6963 187.284 29.4697 187.417 29.9498C187.711 30.9098 187.497 31.5499 186.377 32.1899H195.658C194.218 31.4165 193.924 30.9098 193.498 29.9498C192.724 28.2163 181.177 0.10812 181.177 0.10812C181.177 0.10812 169.763 28.2163 168.936 29.9498C168.51 30.8298 168.109 31.3365 166.883 32.1899H172.883C171.683 31.6299 171.47 30.9898 171.87 29.8964ZM179.523 9.97533C179.523 9.97533 181.897 16.109 183.95 21.2026H175.177C176.563 17.7624 179.523 9.97533 179.523 9.97533ZM91.8386 52.751H86.1849C86.6916 53.0177 86.985 53.4711 86.985 54.2445V73.6855C86.985 74.4056 86.665 74.8589 86.1849 75.1523H91.8386C91.3052 74.8589 91.0386 74.4056 91.0386 73.6855V54.2445C91.0386 53.4711 91.3052 52.9911 91.8386 52.751ZM210.565 73.8189C209.472 72.5121 205.712 66.2451 205.712 66.2451C205.258 65.5251 204.298 64.005 202.191 63.765C204.405 63.605 207.472 61.8182 207.472 58.2713C207.472 56.0579 206.005 52.7244 199.525 52.7244H192.778C193.284 52.9911 193.604 53.4444 193.604 54.2178V73.6589C193.604 74.3789 193.284 74.8323 192.778 75.1256H198.431C197.898 74.8323 197.551 74.3789 197.551 73.6589V64.6717C197.551 64.6717 198.565 64.5917 198.938 64.5917C200.271 64.5917 200.991 66.0051 201.818 67.3385C202.938 69.1786 204.325 71.5788 205.712 73.6589C206.272 74.4589 207.312 75.2056 208.512 75.2056L212.565 75.1523C212.539 75.1523 211.152 74.6189 210.565 73.8189ZM198.938 63.0449C198.405 63.0449 197.524 62.9649 197.524 62.9649V54.3511C197.524 54.3511 198.405 54.2978 199.338 54.2978C202.431 54.2978 203.311 56.9379 203.311 58.458C203.338 61.7915 201.071 63.0449 198.938 63.0449ZM240.914 61.4449C237.98 60.0315 236.62 59.2847 236.62 57.2579C236.62 55.8445 237.553 54.0844 239.927 54.0844C242.94 54.0844 244.7 56.7246 245.154 58.4847L245.02 53.6044C243.42 52.6177 241.367 52.3777 240.3 52.3777C237.447 52.3777 233.473 54.1645 233.473 58.6447C233.473 61.1515 234.727 62.9383 237.607 64.6184C240.46 66.2451 243.18 66.6718 243.18 69.8187C243.18 71.4454 242.247 73.7655 239.153 73.7655C235.9 73.7655 234.033 70.672 233.42 68.3252L233.58 73.8989C234.673 74.4589 236.727 75.4723 239.58 75.4723C243.42 75.4723 246.861 72.6722 246.861 68.5386C246.861 63.9783 243.82 62.8849 240.914 61.4449ZM164.216 73.4455C162.669 73.4989 160.776 73.3655 160.162 73.2855V63.5783H164.883C165.336 63.5783 165.843 64.085 166.003 64.5384V61.0448C165.843 61.4449 165.309 61.9782 164.883 61.9782H160.162V54.4045C160.162 54.4045 164.536 54.4045 165.469 54.4845C166.669 54.5378 167.309 54.8045 167.923 55.6579L167.816 52.751H155.255C155.762 53.0177 156.189 53.4711 156.189 54.2445V73.6855C156.189 74.4856 155.789 74.8323 155.255 75.1523H168.696L169.363 71.3654C168.189 73.4455 166.936 73.3655 164.216 73.4455ZM129.947 54.3778C129.921 54.6178 124.934 68.4053 124.934 68.4053C124.934 68.4053 119.707 54.8578 119.653 54.5645C119.44 53.7644 119.493 53.0711 120.32 52.751H113.413C114.347 53.1511 114.72 53.6578 115.093 54.3245C115.68 55.5512 123.84 75.8456 123.84 75.8456C123.84 75.8456 131.387 55.6045 131.921 54.3245C132.241 53.5244 132.294 53.3111 133.094 52.751H129.281C130.107 53.0711 130.241 53.5244 129.947 54.3778ZM300.357 55.9245C300.65 55.3645 301.157 54.6178 301.93 54.6178C301.93 54.6178 304.624 54.3778 306.944 54.3778V73.6589C306.944 74.3789 306.624 74.8323 306.117 75.1256H311.717C311.237 74.8323 310.891 74.3789 310.891 73.6589V54.3778C313.184 54.3778 316.011 54.6178 316.011 54.6178C316.758 54.6711 317.211 55.3645 317.478 55.9245V52.7244H300.357V55.9245ZM352.546 52.751C353.4 52.9911 353.64 53.6577 353.186 54.4045L349.053 62.9116L344.653 54.8045C343.853 53.2577 344.386 53.0977 345.159 52.7777H338.092C338.919 53.2311 339.266 53.5777 339.719 54.3511L345.853 64.9384V73.7122C345.853 74.5122 345.266 74.8856 344.786 75.1789H351.026C350.546 74.8856 349.933 74.4322 349.933 73.7122V64.805L354.947 54.7778C355.32 54.0311 356.04 53.0977 357.027 52.7777H352.546V52.751ZM276.942 52.751H271.289C271.769 53.0177 272.089 53.4711 272.089 54.2445V73.6855C272.089 74.4056 271.769 74.8589 271.289 75.1523H276.942C276.409 74.8589 276.116 74.4056 276.116 73.6855V54.2445C276.116 53.4711 276.409 52.9911 276.942 52.751ZM58.6367 54.2178V67.2318L47.0894 52.7244H41.7025C42.3692 53.1244 42.7959 53.5777 43.1159 53.9778C43.7026 54.7245 43.6759 54.7778 43.6759 56.0579V73.6589C43.6759 74.3789 43.3292 74.8323 42.8759 75.1256H46.3427C45.8094 74.8323 45.4627 74.3789 45.4627 73.6589V57.1246C45.4627 57.3913 60.4769 76.059 60.4769 76.059V54.2178C60.4769 53.4444 60.8235 52.9911 61.2769 52.7244H57.81C58.3167 52.9911 58.6367 53.4711 58.6367 54.2178ZM15.621 54.2178L15.6744 67.7652C15.6744 71.0187 14.341 73.6055 10.6074 73.6055C6.52719 73.6055 5.78049 70.352 5.78049 68.0319V54.2178C5.78049 53.4444 6.26052 52.9911 6.74055 52.7244H0.740211C1.24691 52.9911 1.75359 53.4444 1.75359 54.2178V67.9252C1.75359 73.7655 6.42052 75.4723 10.0741 75.4723C14.341 75.4723 17.4878 73.2855 17.4878 67.6852L17.5678 54.2178C17.5678 53.4444 17.9145 52.9911 18.3945 52.7244H14.7676C15.2477 52.9911 15.621 53.4711 15.621 54.2178ZM356.36 40.2437H0.260185V42.6438H356.36V40.2437Z" fill="#18453B"/>
</g>
<defs>
<clipPath id="clip0_3_113">
<rect width="358" height="77" fill="white"/>
</clipPath>
</defs>
</svg>
