<?xml version="1.0" encoding="utf-8"?>
<!-- Generator: Adobe Illustrator 19.2.1, SVG Export Plug-In . SVG Version: 6.00 Build 0)  -->
<svg version="1.1" id="layer" xmlns="http://www.w3.org/2000/svg" xmlns:xlink="http://www.w3.org/1999/xlink" x="0px" y="0px"
	 viewBox="0 0 652 652" style="enable-background:new 0 0 652 652;" xml:space="preserve">
<style type="text/css">
	.st0{fill:#002D73;}
	.st1{fill:#002D73;stroke:#002D73;stroke-width:0.3819;stroke-miterlimit:10;}
</style>
<g>
	<path class="st0" d="M56.5,314.6V298c-5.4,4.4-9.7,10-12.5,16.5H56.5z"/>
	<path class="st0" d="M70.5,293.9v20.8c5.7,0,10.4-4.7,10.4-10.4C80.8,298.6,76.2,294,70.5,293.9"/>
	<path class="st0" d="M121.4,271.4L121.4,271.4c-15.9-3.4-32.3-5.2-49.2-5.2c-16.9,0-33.4,1.8-49.2,5.2l-0.1,0c-1.1,0.3-2,1.3-2,2.5
		l0,8.9c0,58.9,34.9,85.5,49.9,93.4c1,0.5,1.7,0.5,2.6,0c15-8,50-34.5,50-93.4l0-8.9C123.5,272.7,122.6,271.6,121.4,271.4
		 M61.5,331.2h-5v-11.4H42.2c-1,3.6-1.6,7.5-1.6,11.4h-4.9c0-18.4,10.5-34.4,25.8-42.2L61.5,331.2z M70.5,319.7v11.4h-5v-42.2h5v0
		c8.5,0,15.4,6.9,15.4,15.4C85.8,312.8,78.9,319.7,70.5,319.7 M109.6,331.2H93.4h-4.7h-0.3V289h5v37.4h16.2V331.2z"/>
</g>
<g>
	<path class="st0" d="M155.1,287.7c0-8-0.7-8.9-5-9.3l-1.8-0.1c-0.4-0.3-0.3-1.6,0.1-1.8c4.2,0.1,6.7,0.2,9.7,0.2
		c2.9,0,5.4-0.1,8.3-0.2c0.4,0.2,0.6,1.5,0.1,1.8l-1.1,0.1c-4.3,0.6-4.4,1.6-4.4,9.3v26.9c0,5.7-0.3,10.7-1.7,14
		c-2.4,5.8-7.5,10.4-14.3,10.4c-0.9,0-3.1-0.1-3.1-1.5c0-1.2,1.1-3.3,2.6-3.3c0.9,0,1.7,0.1,2.7,0.4c1,0.3,2,0.5,3,0.5
		c1.5,0,2.4-0.9,2.9-1.9c1.7-3.4,1.9-14.3,1.9-18.2V287.7z"/>
	<path class="st0" d="M166.4,304.8c0-12.2,9.2-21.6,21.8-21.6c14.1,0,21.2,10.2,21.2,21c0,12.3-9.4,21.3-21.2,21.3
		C174.6,325.5,166.4,315.8,166.4,304.8 M203.2,306.1c0-10.1-4.5-21-16.1-21c-6.4,0-14.6,4.3-14.6,17.7c0,9,4.4,20.8,16.4,20.8
		C196.3,323.6,203.2,318.1,203.2,306.1"/>
	<path class="st0" d="M223.2,304.8c-2.9,0-3.1,0.1-3.1,2v8.6c0,6.4,0.3,7.3,3.7,7.6l1.8,0.2c0.4,0.2,0.2,1.3-0.1,1.5
		c-3.3-0.1-5.4-0.2-7.8-0.2c-2.6,0-4.7,0.1-7.1,0.2c-0.4-0.2-0.5-1.2-0.1-1.5l1-0.2c3.4-0.6,3.5-1.2,3.5-7.6v-22
		c0-6.4-0.4-7.5-3.6-7.7l-1.6-0.1c-0.4-0.2-0.2-1.3,0.1-1.5c3,0.1,5.1,0.2,7.7,0.2c2.4,0,4.5-0.1,7.1-0.2c0.4,0.2,0.5,1.3,0.1,1.5
		l-1.2,0.1c-3.5,0.4-3.7,1.3-3.7,7.7v7c0,1.9,0.1,2,3.1,2h17.5c2.9,0,3.1-0.1,3.1-2v-7c0-6.4-0.1-7.3-3.7-7.7l-1.2-0.1
		c-0.4-0.2-0.2-1.3,0.1-1.5c2.8,0.1,4.9,0.2,7.4,0.2c2.4,0,4.5-0.1,7.2-0.2c0.4,0.2,0.5,1.3,0.1,1.5l-1.3,0.1
		c-3.5,0.4-3.7,1.3-3.7,7.7v22c0,6.4,0.1,7.2,3.7,7.6l1.5,0.2c0.4,0.2,0.2,1.3-0.1,1.5c-2.9-0.1-5-0.2-7.4-0.2
		c-2.5,0-4.7,0.1-7.4,0.2c-0.4-0.2-0.5-1.2-0.1-1.5l1.2-0.2c3.7-0.6,3.7-1.2,3.7-7.6v-8.6c0-1.8-0.1-2-3.1-2H223.2z"/>
	<path class="st0" d="M295.6,314.1c0,1.8,0,9.1,0.2,10.7c-0.1,0.4-0.5,0.7-1.2,0.7c-0.7-1-2.5-3.2-7.8-9.2l-14.2-16.1
		c-1.7-1.9-5.8-6.9-7.1-8.2h-0.1c-0.2,0.7-0.3,2.1-0.3,4v13.3c0,2.9,0.1,10.8,1.1,12.6c0.4,0.7,1.6,1,3.1,1.2l1.9,0.2
		c0.4,0.5,0.3,1.2-0.1,1.5c-2.7-0.1-4.9-0.2-7.1-0.2c-2.6,0-4.2,0.1-6.4,0.2c-0.4-0.3-0.5-1.2-0.1-1.5l1.6-0.2
		c1.4-0.2,2.4-0.6,2.7-1.2c0.9-2.2,0.8-9.7,0.8-12.6v-17.7c0-1.7-0.1-3-1.3-4.4c-0.9-0.9-2.3-1.3-3.8-1.5l-1-0.1
		c-0.4-0.4-0.4-1.3,0.1-1.5c2.6,0.2,5.8,0.2,6.9,0.2c1,0,2-0.1,2.8-0.2c1.2,3.1,8.4,11.2,10.5,13.4l5.9,6.7
		c4.2,4.7,7.2,8.1,10.1,11.1h0.1c0.2-0.3,0.2-1.3,0.2-2.6v-13.1c0-2.9-0.1-10.8-1.2-12.6c-0.4-0.5-1.3-0.9-3.8-1.2l-1-0.1
		c-0.4-0.4-0.4-1.3,0.1-1.5c2.8,0.1,4.9,0.2,7.2,0.2c2.6,0,4.2-0.1,6.3-0.2c0.5,0.3,0.5,1.2,0.1,1.5l-0.9,0.1
		c-2,0.3-3.2,0.8-3.4,1.3c-1,2.2-0.9,9.8-0.9,12.6V314.1z"/>
	<path class="st0" d="M311.8,325.5c-5.1,0-8.4-1.6-9.5-2.3c-0.7-1.3-1.5-5.7-1.7-8.6c0.3-0.4,1.2-0.6,1.5-0.2
		c0.9,3.1,3.4,9.1,10.5,9.1c5.1,0,7.6-3.4,7.6-7c0-2.7-0.6-5.7-5-8.6l-5.8-3.8c-3.1-2-6.6-5.5-6.6-10.5c0-5.8,4.5-10.5,12.5-10.5
		c1.9,0,4.1,0.4,5.7,0.8c0.8,0.2,1.6,0.4,2.1,0.4c0.5,1.5,1.1,4.9,1.1,7.5c-0.2,0.4-1.2,0.6-1.5,0.2c-0.8-2.9-2.4-6.9-8.3-6.9
		c-6,0-7.3,4-7.3,6.8c0,3.5,2.9,6.1,5.2,7.5l4.9,3.1c3.9,2.4,7.6,5.9,7.6,11.7C324.8,320.9,319.7,325.5,311.8,325.5"/>
	<path class="st0" d="M361.1,301.1c-3.5,0-3.6,0.1-3.6,2.3v10.2c0,7.6,0.4,8.6,4.4,9.1l2.1,0.2c0.4,0.3,0.3,1.6-0.1,1.8
		c-3.9-0.1-6.4-0.2-9.2-0.2c-3.1,0-5.6,0.1-8.4,0.2c-0.4-0.2-0.6-1.4-0.1-1.8l1.2-0.2c4.1-0.7,4.2-1.5,4.2-9.1v-26.1
		c0-7.6-0.5-8.8-4.3-9.1l-1.9-0.1c-0.4-0.3-0.3-1.6,0.1-1.8c3.5,0.1,6,0.2,9.1,0.2c2.8,0,5.3-0.1,8.4-0.2c0.4,0.2,0.6,1.5,0.1,1.8
		l-1.4,0.1c-4.2,0.4-4.3,1.5-4.3,9.1v8.3c0,2.2,0.1,2.3,3.6,2.3h20.7c3.5,0,3.6-0.1,3.6-2.3v-8.3c0-7.6-0.1-8.7-4.4-9.1l-1.4-0.1
		c-0.4-0.3-0.3-1.6,0.1-1.8c3.3,0.1,5.8,0.2,8.8,0.2c2.8,0,5.3-0.1,8.5-0.2c0.4,0.2,0.6,1.5,0.1,1.8l-1.5,0.1
		c-4.2,0.4-4.3,1.5-4.3,9.1v26.1c0,7.6,0.1,8.5,4.3,9.1l1.7,0.2c0.4,0.3,0.3,1.6-0.1,1.8c-3.5-0.1-5.9-0.2-8.8-0.2
		c-3,0-5.6,0.1-8.8,0.2c-0.4-0.2-0.6-1.4-0.1-1.8l1.4-0.2c4.4-0.7,4.4-1.5,4.4-9.1v-10.2c0-2.2-0.1-2.3-3.6-2.3H361.1z"/>
	<path class="st0" d="M397,304.8c0-12.2,9.2-21.6,21.8-21.6c14.1,0,21.2,10.2,21.2,21c0,12.3-9.4,21.3-21.2,21.3
		C405.2,325.5,397,315.8,397,304.8 M433.8,306.1c0-10.1-4.5-21-16.1-21c-6.4,0-14.6,4.3-14.6,17.7c0,9,4.4,20.8,16.4,20.8
		C426.9,323.6,433.8,318.1,433.8,306.1"/>
	<path class="st0" d="M451,315.4c0,6.4,0.1,7.2,4,7.6l1.7,0.2c0.4,0.3,0.2,1.3-0.1,1.5c-3.5-0.1-5.5-0.2-7.9-0.2
		c-2.6,0-4.8,0.1-7.5,0.2c-0.4-0.2-0.5-1.2-0.1-1.5l1.3-0.2c3.5-0.5,3.7-1.2,3.7-7.6v-22.5c0-5.2-0.1-6.2-2.9-6.5l-2.2-0.2
		c-0.4-0.4-0.4-1.3,0.1-1.5c3.2-0.4,7-0.5,12.1-0.5c5.1,0,8.9,0.7,11.7,2.4c2.8,1.8,4.9,4.9,4.9,9.2c0,5.6-3.5,8.4-6.1,9.7
		c-2.7,1.3-5.9,1.8-8.4,1.8c-0.4-0.2-0.4-1.1-0.1-1.2c6.6-1.2,9-5,9-10.3c0-5.9-3.5-9.8-9.8-9.8c-3.2,0-3.3,0.2-3.3,2.2V315.4z"/>
	<path class="st0" d="M476.4,293.4c0-6.4-0.1-7.4-3.7-7.7l-1.5-0.1c-0.4-0.2-0.2-1.3,0.1-1.5c3,0.1,4.9,0.2,7.7,0.2
		c2.4,0,4.5-0.1,7.1-0.2c0.4,0.2,0.5,1.3,0.1,1.5l-1.2,0.1c-3.5,0.4-3.7,1.3-3.7,7.7v7c0,1.2,0.1,2.3,0.8,2.3c0.5,0,1.3-0.4,1.7-0.7
		c0.9-0.7,2.4-2.3,3.1-2.9l6.6-6.5c1.2-1.1,4.2-4.2,4.8-5.1c0.3-0.4,0.4-0.7,0.4-1c0-0.2-0.2-0.4-1-0.6l-1.7-0.4
		c-0.4-0.4-0.4-1.2,0.1-1.5c2.1,0.1,4.6,0.2,6.7,0.2c2.1,0,4.2-0.1,6-0.2c0.4,0.3,0.5,1.2,0.1,1.5c-1.6,0.1-4,0.7-5.7,1.7
		c-1.7,1-5.1,3.8-8.6,7.1l-5.5,5.2c-0.9,0.9-1.4,1.4-1.4,1.9c0,0.4,0.4,0.9,1.2,1.9c5.8,6.7,10.5,12.2,15.3,17.2
		c1.5,1.5,2.6,2.3,4.7,2.5l1.2,0.2c0.4,0.3,0.3,1.3-0.1,1.5c-1.6-0.1-3.3-0.2-6.1-0.2c-2.5,0-4.6,0.1-7.5,0.2
		c-0.4-0.1-0.6-1.2-0.2-1.5l1.4-0.2c0.9-0.1,1.5-0.3,1.5-0.6c0-0.4-0.4-0.9-0.9-1.4c-1.2-1.5-2.7-3.1-5.1-5.7l-4.9-5.5
		c-3.5-3.9-4.5-5.1-5.9-5.1c-0.9,0-1,0.8-1,2.9v7.9c0,6.4,0.1,7.3,3.5,7.6l1.7,0.2c0.4,0.2,0.2,1.3-0.1,1.5c-3-0.1-5.1-0.2-7.5-0.2
		c-2.5,0-4.6,0.1-7.1,0.2c-0.4-0.2-0.5-1.1-0.1-1.5l1.2-0.2c3.2-0.5,3.4-1.2,3.4-7.6V293.4z"/>
	<path class="st0" d="M518.3,293.5c0-6.5-0.1-7.5-3.7-7.8l-1.5-0.1c-0.4-0.2-0.2-1.3,0.1-1.5c3.1,0.1,5.1,0.2,7.7,0.2
		c2.4,0,4.5-0.1,7.6-0.2c0.4,0.2,0.5,1.3,0.1,1.5l-1.5,0.1c-3.6,0.3-3.7,1.3-3.7,7.8v21.7c0,6.5,0.1,7.3,3.7,7.8l1.5,0.2
		c0.4,0.2,0.2,1.3-0.1,1.5c-3.1-0.1-5.1-0.2-7.6-0.2c-2.6,0-4.4,0.1-7.5,0.2c-0.4-0.2-0.5-1.2-0.1-1.5l1.3-0.2
		c3.6-0.4,3.7-1.3,3.7-7.8V293.5z"/>
	<path class="st0" d="M571.2,314.1c0,1.8,0,9.1,0.2,10.7c-0.1,0.4-0.5,0.7-1.2,0.7c-0.7-1-2.5-3.2-7.8-9.2l-14.2-16.1
		c-1.6-1.9-5.8-6.9-7.1-8.2H541c-0.2,0.7-0.3,2.1-0.3,4v13.3c0,2.9,0.1,10.8,1.1,12.6c0.4,0.7,1.6,1,3.1,1.2l1.9,0.2
		c0.4,0.5,0.3,1.2-0.1,1.5c-2.7-0.1-4.9-0.2-7.1-0.2c-2.6,0-4.2,0.1-6.4,0.2c-0.4-0.3-0.5-1.2-0.1-1.5l1.7-0.2
		c1.4-0.2,2.4-0.6,2.7-1.2c0.9-2.2,0.8-9.7,0.8-12.6v-17.7c0-1.7-0.1-3-1.3-4.4c-0.9-0.9-2.3-1.3-3.8-1.5l-1-0.1
		c-0.4-0.4-0.4-1.3,0.1-1.5c2.6,0.2,5.8,0.2,6.9,0.2c1,0,2-0.1,2.8-0.2c1.2,3.1,8.4,11.2,10.4,13.4l5.9,6.7
		c4.2,4.7,7.2,8.1,10.1,11.1h0.1c0.2-0.3,0.2-1.3,0.2-2.6v-13.1c0-2.9-0.1-10.8-1.2-12.6c-0.4-0.5-1.3-0.9-3.8-1.2l-1-0.1
		c-0.4-0.4-0.4-1.3,0.1-1.5c2.8,0.1,4.9,0.2,7.2,0.2c2.6,0,4.2-0.1,6.3-0.2c0.5,0.3,0.5,1.2,0.1,1.5l-0.9,0.1
		c-2,0.3-3.2,0.8-3.4,1.3c-1,2.2-0.9,9.8-0.9,12.6V314.1z"/>
	<path class="st0" d="M587.3,325.5c-5.1,0-8.4-1.6-9.5-2.3c-0.7-1.3-1.5-5.7-1.7-8.6c0.3-0.4,1.2-0.6,1.5-0.2
		c0.9,3.1,3.4,9.1,10.5,9.1c5.1,0,7.6-3.4,7.6-7c0-2.7-0.6-5.7-5-8.6l-5.8-3.8c-3.1-2-6.6-5.5-6.6-10.5c0-5.8,4.5-10.5,12.5-10.5
		c1.9,0,4.1,0.4,5.7,0.8c0.8,0.2,1.6,0.4,2.1,0.4c0.6,1.5,1.1,4.9,1.1,7.5c-0.2,0.4-1.2,0.6-1.5,0.2c-0.8-2.9-2.4-6.9-8.3-6.9
		c-6,0-7.3,4-7.3,6.8c0,3.5,2.9,6.1,5.2,7.5l4.9,3.1c3.8,2.4,7.6,5.9,7.6,11.7C600.3,320.9,595.2,325.5,587.3,325.5"/>
</g>
<g>
	<path class="st1" d="M135.5,365.4c-0.2-0.7-0.3-0.8-1.3-0.8h-4.8c-0.8,0-1,0.1-1.2,0.8l-1.1,3.3c-0.5,1.4-0.7,2.3-0.7,2.6
		c0,0.4,0.2,0.6,0.9,0.6l1,0.1c0.2,0.2,0.2,0.7-0.1,0.8c-0.8-0.1-1.8-0.1-3.3-0.1c-1,0-2.2,0.1-3,0.1c-0.2-0.1-0.2-0.6-0.1-0.8
		l1-0.1c0.8-0.1,1.5-0.4,1.9-1.5c0.6-1.4,1.5-3.5,2.8-7l3.2-8.5c0.4-1.1,0.6-1.7,0.5-2.2c0.8-0.2,1.3-0.8,1.6-1.2
		c0.2,0,0.4,0.1,0.5,0.3c0.4,1.4,0.9,2.8,1.4,4.2l4.3,12.7c0.9,2.7,1.3,3.2,2.7,3.3l0.9,0.1c0.2,0.2,0.2,0.7,0,0.8
		c-1.3-0.1-2.4-0.1-3.8-0.1c-1.5,0-2.7,0.1-3.6,0.1c-0.3-0.1-0.3-0.6-0.1-0.8l0.9-0.1c0.7-0.1,1.1-0.3,1.1-0.6
		c0-0.3-0.2-0.9-0.4-1.7L135.5,365.4z M129.3,362.6c-0.3,0.7-0.2,0.8,0.7,0.8h3.9c0.9,0,1-0.1,0.7-1l-1.7-5.1
		c-0.3-0.8-0.5-1.6-0.7-2H132c-0.1,0.2-0.4,0.9-0.8,1.9L129.3,362.6z"/>
	<path class="st1" d="M150.6,368c0,3.3,0.1,3.7,2.1,3.9l0.9,0.1c0.2,0.2,0.1,0.7-0.1,0.8c-1.8-0.1-2.8-0.1-4.1-0.1
		c-1.3,0-2.5,0-3.9,0.1c-0.2-0.1-0.3-0.6-0.1-0.8l0.7-0.1c1.8-0.3,1.9-0.6,1.9-3.9v-11.7c0-2.7-0.1-3.2-1.5-3.4l-1.1-0.1
		c-0.2-0.2-0.2-0.7,0.1-0.8c1.7-0.2,3.6-0.3,6.3-0.3c2.6,0,4.6,0.3,6.1,1.3c1.5,0.9,2.5,2.6,2.5,4.7c0,2.9-1.8,4.4-3.2,5
		c-1.4,0.7-3.1,0.9-4.4,0.9c-0.2-0.1-0.2-0.6,0-0.6c3.4-0.6,4.6-2.6,4.6-5.3c0-3.1-1.8-5.1-5.1-5.1c-1.7,0-1.7,0.1-1.7,1.1V368z"/>
	<path class="st1" d="M168.7,368c0,3.3,0.1,3.7,2.1,3.9l0.9,0.1c0.2,0.2,0.1,0.7-0.1,0.8c-1.8-0.1-2.8-0.1-4.1-0.1
		c-1.3,0-2.5,0-3.9,0.1c-0.2-0.1-0.3-0.6-0.1-0.8l0.7-0.1c1.8-0.3,1.9-0.6,1.9-3.9v-11.7c0-2.7-0.1-3.2-1.5-3.4l-1.1-0.1
		c-0.2-0.2-0.2-0.7,0.1-0.8c1.7-0.2,3.6-0.3,6.3-0.3c2.6,0,4.6,0.3,6.1,1.3c1.5,0.9,2.5,2.6,2.5,4.7c0,2.9-1.8,4.4-3.2,5
		c-1.4,0.7-3.1,0.9-4.4,0.9c-0.2-0.1-0.2-0.6,0-0.6c3.4-0.6,4.6-2.6,4.6-5.3c0-3.1-1.8-5.1-5.1-5.1c-1.7,0-1.7,0.1-1.7,1.1V368z"/>
	<path class="st1" d="M184.2,356.6c0-3.3-0.1-3.8-2.1-4l-0.8-0.1c-0.2-0.1-0.1-0.7,0.1-0.8c1.8,0.1,2.8,0.1,4.1,0.1
		c1.2,0,2.3,0,3.9-0.1c0.2,0.1,0.3,0.7,0.1,0.8l-0.8,0.1c-1.9,0.2-1.9,0.7-1.9,4v11c0,2,0.1,2.8,0.7,3.4c0.3,0.3,0.9,0.7,3.4,0.7
		c2.7,0,3.3-0.1,3.9-0.4c0.6-0.4,1.5-1.5,2.1-3.1c0.2-0.2,0.8,0,0.8,0.2c0,0.3-0.9,3.6-1.3,4.4c-1.6-0.1-4.6-0.1-7.9-0.1h-2.9
		c-1.3,0-2.3,0-4.1,0.1c-0.2-0.1-0.3-0.6-0.1-0.8l0.9-0.1c1.8-0.2,1.9-0.6,1.9-3.9V356.6z"/>
	<path class="st1" d="M203.2,356.7c0-3.3-0.1-3.9-1.9-4l-0.8-0.1c-0.2-0.1-0.1-0.7,0.1-0.8c1.6,0.1,2.7,0.1,4,0.1
		c1.3,0,2.3,0,3.9-0.1c0.2,0.1,0.3,0.7,0.1,0.8l-0.8,0.1c-1.9,0.2-1.9,0.7-1.9,4v11.2c0,3.3,0.1,3.8,1.9,4l0.8,0.1
		c0.2,0.1,0.1,0.7-0.1,0.8c-1.6-0.1-2.7-0.1-3.9-0.1c-1.3,0-2.4,0-4,0.1c-0.2-0.1-0.3-0.6-0.1-0.8l0.8-0.1c1.9-0.2,1.9-0.7,1.9-4
		V356.7z"/>
	<path class="st1" d="M215.4,356.6c0-3.3-0.1-3.8-1.9-4l-0.5-0.1c-0.2-0.1-0.1-0.7,0.1-0.8c1.4,0.1,2.4,0.1,3.7,0.1h5.9
		c2,0,3.9,0,4.3-0.1c0.2,0.5,0.4,2.8,0.5,4.2c-0.1,0.2-0.6,0.3-0.8,0.1c-0.5-1.5-0.8-2.6-2.4-3c-0.7-0.2-1.7-0.2-3.1-0.2H219
		c-0.9,0-0.9,0.1-0.9,1.3v6.3c0,0.9,0.1,0.9,1,0.9h1.8c1.3,0,2.3-0.1,2.7-0.2c0.4-0.1,0.6-0.3,0.8-1.1l0.3-1.3
		c0.2-0.2,0.7-0.2,0.8,0c0,0.8-0.1,2-0.1,3.2c0,1.1,0.1,2.3,0.1,3c-0.1,0.2-0.7,0.2-0.8,0l-0.3-1.2c-0.1-0.6-0.3-1-1-1.2
		c-0.4-0.1-1.2-0.2-2.4-0.2h-1.8c-0.9,0-1,0-1,0.9v4.5c0,1.7,0.1,2.7,0.6,3.3c0.4,0.4,1,0.7,3.8,0.7c2.4,0,3.3-0.1,4-0.5
		c0.6-0.3,1.4-1.4,2.2-3.1c0.2-0.2,0.7-0.1,0.8,0.2c-0.2,1.1-1,3.5-1.4,4.4c-2.8-0.1-5.7-0.1-8.5-0.1h-2.8c-1.4,0-2.4,0-4.3,0.1
		c-0.2-0.1-0.3-0.6-0.1-0.8l1-0.1c1.8-0.2,2-0.6,2-3.9V356.6z"/>
	<path class="st1" d="M235.5,356c0-2.2-0.2-2.9-1.5-3.1l-0.7-0.1c-0.3-0.2-0.3-0.7,0-0.8c2.7-0.2,5.2-0.3,7.9-0.3
		c2.7,0,4.9,0.2,6.9,0.9c4.3,1.5,6.4,5.1,6.4,9.3c0,4-1.9,7.5-5.5,9.4c-2.1,1.1-4.6,1.5-7.1,1.5c-2,0-4-0.3-5.2-0.3
		c-1.3,0-2.5,0-3.9,0.1c-0.2-0.1-0.3-0.6-0.1-0.8l0.7-0.1c1.8-0.3,1.9-0.6,1.9-3.9V356z M238,367.2c0,1.7,0.1,2.7,0.6,3.4
		c0.7,1,1.9,1.3,3.9,1.3c6.1,0,8.9-4,8.9-9.9c0-3.5-1.7-9.4-9.9-9.4c-1.9,0-2.9,0.3-3.1,0.4c-0.3,0.2-0.3,1-0.3,2.4V367.2z"/>
	<path class="st1" d="M273.7,368c0,3.3,0.1,3.7,2.1,3.9l0.9,0.1c0.2,0.2,0.1,0.7-0.1,0.8c-1.8-0.1-2.8-0.1-4.1-0.1
		c-1.3,0-2.5,0-3.9,0.1c-0.2-0.1-0.3-0.6-0.1-0.8l0.7-0.1c1.8-0.3,1.9-0.6,1.9-3.9v-11.7c0-2.7-0.1-3.2-1.5-3.4l-1.1-0.1
		c-0.2-0.2-0.2-0.7,0.1-0.8c1.7-0.2,3.6-0.3,6.3-0.3c2.6,0,4.6,0.3,6.1,1.3c1.5,0.9,2.5,2.6,2.5,4.7c0,2.9-1.8,4.4-3.2,5
		c-1.4,0.7-3.1,0.9-4.4,0.9c-0.2-0.1-0.2-0.6,0-0.6c3.4-0.6,4.6-2.6,4.6-5.3c0-3.1-1.8-5.1-5.1-5.1c-1.7,0-1.7,0.1-1.7,1.1V368z"/>
	<path class="st1" d="M293.8,362.5c-1.5,0-1.6,0.1-1.6,1v4.5c0,3.3,0.2,3.8,1.9,3.9l0.9,0.1c0.2,0.1,0.1,0.7-0.1,0.8
		c-1.7-0.1-2.8-0.1-4-0.1c-1.4,0-2.4,0.1-3.7,0.1c-0.2-0.1-0.3-0.6-0.1-0.8l0.5-0.1c1.8-0.3,1.8-0.6,1.8-3.9v-11.4
		c0-3.3-0.2-3.9-1.9-4l-0.8-0.1c-0.2-0.1-0.1-0.7,0.1-0.8c1.5,0,2.6,0.1,4,0.1c1.2,0,2.3,0,3.7-0.1c0.2,0.1,0.3,0.7,0.1,0.8
		l-0.6,0.1c-1.8,0.2-1.9,0.7-1.9,4v3.6c0,1,0.1,1,1.6,1h9c1.5,0,1.6,0,1.6-1v-3.6c0-3.3-0.1-3.8-1.9-4l-0.6-0.1
		c-0.2-0.1-0.1-0.7,0.1-0.8c1.5,0.1,2.5,0.1,3.8,0.1c1.2,0,2.3,0,3.7-0.1c0.2,0.1,0.3,0.7,0.1,0.8l-0.7,0.1c-1.8,0.2-1.9,0.7-1.9,4
		V368c0,3.3,0.1,3.7,1.9,3.9l0.8,0.1c0.2,0.1,0.1,0.7-0.1,0.8c-1.5-0.1-2.6-0.1-3.8-0.1c-1.3,0-2.4,0-3.8,0.1
		c-0.2-0.1-0.3-0.6-0.1-0.8l0.6-0.1c1.9-0.3,1.9-0.6,1.9-3.9v-4.5c0-0.9-0.1-1-1.6-1H293.8z"/>
	<path class="st1" d="M323.2,367.9c0,3.4,0.2,3.9,1.9,4l1.2,0.1c0.2,0.2,0.1,0.7-0.1,0.8c-2-0.1-3-0.1-4.3-0.1c-1.3,0-2.5,0-4.1,0.1
		c-0.2-0.1-0.3-0.6-0.1-0.8l1-0.1c1.8-0.2,1.9-0.6,1.9-4v-1.6c0-1.7-0.1-2.1-1-3.9l-3.7-7.3c-1.1-2.1-1.5-2.2-2.5-2.4l-0.9-0.2
		c-0.2-0.2-0.2-0.7,0.1-0.8c1,0.1,2.1,0.1,3.7,0.1c1.5,0,2.6,0,3.4-0.1c0.3,0.1,0.3,0.6,0.1,0.8l-0.4,0.1c-1.1,0.2-1.3,0.3-1.3,0.6
		c0,0.3,0.8,2.1,1,2.4c1.2,2.3,2.3,4.8,3.6,7c1-1.7,2-3.5,3-5.3c0.9-1.6,2.1-3.8,2.1-4.2c0-0.2-0.6-0.4-1.3-0.5l-0.6-0.1
		c-0.2-0.2-0.2-0.7,0.1-0.8c1.1,0.1,2.1,0.1,3,0.1c1,0,1.9,0,2.9-0.1c0.3,0.2,0.3,0.6,0.1,0.8l-0.9,0.2c-1.6,0.3-2.6,2.3-4.2,5
		l-2,3.4c-1.4,2.4-1.5,2.7-1.5,5.1V367.9z"/>
	<path class="st1" d="M339.3,373.2c-2.7,0-4.3-0.8-4.9-1.2c-0.4-0.7-0.8-2.9-0.9-4.4c0.2-0.2,0.6-0.3,0.8-0.1
		c0.5,1.6,1.8,4.7,5.4,4.7c2.7,0,3.9-1.7,3.9-3.6c0-1.4-0.3-2.9-2.6-4.4l-3-2c-1.6-1-3.4-2.8-3.4-5.4c0-3,2.3-5.4,6.4-5.4
		c1,0,2.1,0.2,2.9,0.4c0.4,0.1,0.9,0.2,1.1,0.2c0.3,0.8,0.6,2.5,0.6,3.9c-0.1,0.2-0.6,0.3-0.8,0.1c-0.4-1.5-1.3-3.6-4.3-3.6
		c-3.1,0-3.8,2.1-3.8,3.5c0,1.8,1.5,3.2,2.7,3.9l2.5,1.6c2,1.2,3.9,3.1,3.9,6.1C346,370.8,343.4,373.2,339.3,373.2"/>
	<path class="st1" d="M353.3,356.7c0-3.3-0.1-3.9-1.9-4l-0.8-0.1c-0.2-0.1-0.1-0.7,0.1-0.8c1.6,0.1,2.7,0.1,4,0.1
		c1.3,0,2.3,0,3.9-0.1c0.2,0.1,0.3,0.7,0.1,0.8l-0.8,0.1c-1.9,0.2-1.9,0.7-1.9,4v11.2c0,3.3,0.1,3.8,1.9,4l0.8,0.1
		c0.2,0.1,0.1,0.7-0.1,0.8c-1.6-0.1-2.7-0.1-3.9-0.1c-1.3,0-2.4,0-4,0.1c-0.2-0.1-0.3-0.6-0.1-0.8l0.8-0.1c1.9-0.2,1.9-0.7,1.9-4
		V356.7z"/>
	<path class="st1" d="M365.3,354c2.3-1.8,5.2-2.7,8.5-2.7c1.7,0,4.1,0.3,5.6,0.8c0.4,0.1,0.6,0.2,0.9,0.1c0,0.7,0.2,2.7,0.4,4.6
		c-0.2,0.2-0.6,0.3-0.9,0.1c-0.5-2.1-1.9-4.6-6.5-4.6c-4.8,0-8.9,3.1-8.9,9.6c0,6.6,4.2,10.3,9.4,10.3c4.1,0,5.9-2.7,6.6-4.5
		c0.2-0.2,0.7-0.1,0.8,0.1c-0.2,1.6-1,3.7-1.5,4.3c-0.4,0.1-0.8,0.2-1.1,0.3c-0.7,0.3-3,0.7-5,0.7c-2.8,0-5.6-0.6-7.9-2.1
		c-2.5-1.7-4.5-4.6-4.5-8.7C361.3,358.9,362.9,355.9,365.3,354"/>
	<path class="st1" d="M390.5,373.2c-2.7,0-4.3-0.8-4.9-1.2c-0.4-0.7-0.8-2.9-0.9-4.4c0.2-0.2,0.6-0.3,0.8-0.1
		c0.5,1.6,1.8,4.7,5.4,4.7c2.7,0,3.9-1.7,3.9-3.6c0-1.4-0.3-2.9-2.6-4.4l-3-2c-1.6-1-3.4-2.8-3.4-5.4c0-3,2.3-5.4,6.4-5.4
		c1,0,2.1,0.2,2.9,0.4c0.4,0.1,0.9,0.2,1.1,0.2c0.3,0.8,0.6,2.5,0.6,3.9c-0.1,0.2-0.6,0.3-0.8,0.1c-0.4-1.5-1.3-3.6-4.3-3.6
		c-3.1,0-3.8,2.1-3.8,3.5c0,1.8,1.5,3.2,2.7,3.9l2.5,1.6c2,1.2,3.9,3.1,3.9,6.1C397.2,370.8,394.6,373.2,390.5,373.2"/>
	<path class="st1" d="M413.9,356.6c0-3.3-0.1-3.8-2.1-4l-0.8-0.1c-0.2-0.1-0.1-0.7,0.1-0.8c1.8,0.1,2.8,0.1,4.1,0.1
		c1.2,0,2.3,0,3.9-0.1c0.2,0.1,0.3,0.7,0.1,0.8l-0.8,0.1c-1.9,0.2-1.9,0.7-1.9,4v11c0,2,0.1,2.8,0.7,3.4c0.3,0.3,0.9,0.7,3.4,0.7
		c2.7,0,3.3-0.1,3.9-0.4c0.6-0.4,1.5-1.5,2.1-3.1c0.2-0.2,0.8,0,0.8,0.2c0,0.3-0.9,3.6-1.3,4.4c-1.6-0.1-4.6-0.1-7.9-0.1h-2.9
		c-1.3,0-2.3,0-4.1,0.1c-0.2-0.1-0.3-0.6-0.1-0.8l0.9-0.1c1.8-0.2,1.9-0.6,1.9-3.9V356.6z"/>
	<path class="st1" d="M442.2,365.4c-0.2-0.7-0.3-0.8-1.3-0.8h-4.8c-0.8,0-1,0.1-1.2,0.8l-1.1,3.3c-0.5,1.4-0.7,2.3-0.7,2.6
		c0,0.4,0.2,0.6,0.9,0.6l1,0.1c0.2,0.2,0.2,0.7-0.1,0.8c-0.8-0.1-1.8-0.1-3.3-0.1c-1,0-2.2,0.1-3,0.1c-0.2-0.1-0.3-0.6-0.1-0.8
		l1-0.1c0.8-0.1,1.5-0.4,1.9-1.5c0.6-1.4,1.5-3.5,2.8-7l3.2-8.5c0.4-1.1,0.6-1.7,0.5-2.2c0.8-0.2,1.3-0.8,1.6-1.2
		c0.2,0,0.4,0.1,0.5,0.3c0.4,1.4,0.9,2.8,1.4,4.2l4.3,12.7c0.9,2.7,1.3,3.2,2.7,3.3l0.9,0.1c0.2,0.2,0.2,0.7,0,0.8
		c-1.3-0.1-2.4-0.1-3.8-0.1c-1.5,0-2.7,0.1-3.6,0.1c-0.3-0.1-0.3-0.6-0.1-0.8l0.9-0.1c0.7-0.1,1.1-0.3,1.1-0.6
		c0-0.3-0.2-0.9-0.4-1.7L442.2,365.4z M435.9,362.6c-0.3,0.7-0.2,0.8,0.7,0.8h3.9c0.9,0,1-0.1,0.7-1l-1.7-5.1
		c-0.3-0.8-0.5-1.6-0.7-2h-0.1c-0.1,0.2-0.4,0.9-0.8,1.9L435.9,362.6z"/>
	<path class="st1" d="M454.6,356c0-2.3-0.1-2.9-1.5-3.1l-1-0.1c-0.3-0.2-0.2-0.7,0-0.8c1.7-0.2,3.9-0.3,6.8-0.3c2,0,3.9,0.2,5.3,0.9
		c1.4,0.7,2.4,1.9,2.4,3.9c0,2.3-1.3,3.4-3.2,4.3c0,0.3,0.3,0.4,0.6,0.5c1.7,0.3,4.2,1.9,4.2,5.3c0,3.7-2.7,6.1-8.4,6.1
		c-0.9,0-2.5-0.1-3.8-0.1c-1.4,0-2.5,0.1-3.6,0.1c-0.2-0.1-0.3-0.6-0.1-0.8l0.6-0.1c1.7-0.3,1.7-0.6,1.7-3.9V356z M457.2,360.2
		c0,0.9,0,0.9,1.6,0.9c3.2-0.1,5-1.1,5-4c0-3.1-2.3-4.3-4.7-4.3c-0.7,0-1.2,0.1-1.5,0.2c-0.3,0.1-0.4,0.3-0.4,0.8V360.2z
		 M457.2,367.5c0,1.1,0.1,2.7,0.7,3.4c0.6,0.7,1.5,0.9,2.5,0.9c2.8,0,5-1.3,5-4.4c0-2.5-1.3-5.4-6.3-5.4c-1.7,0-1.8,0.2-1.8,0.8
		V367.5z"/>
	<path class="st1" d="M471.9,362.5c0-6.3,4.7-11.1,11.2-11.1c7.3,0,11,5.3,11,10.8c0,6.4-4.9,11-11,11
		C476.1,373.2,471.9,368.2,471.9,362.5 M490.9,363.2c0-5.2-2.3-10.8-8.3-10.8c-3.3,0-7.5,2.2-7.5,9.2c0,4.7,2.3,10.7,8.5,10.7
		C487.3,372.2,490.9,369.4,490.9,363.2"/>
	<path class="st1" d="M499.5,356.6c0-3-0.1-3.5-1.4-3.7l-1-0.1c-0.2-0.2-0.2-0.7,0-0.8c1.8-0.2,3.9-0.3,7-0.3c2,0,3.8,0.2,5.3,0.9
		c1.5,0.8,2.6,2.2,2.6,4.4c0,3-2.4,4.6-3.9,5.3c-0.2,0.2,0,0.5,0.2,0.8c2.5,4.1,4.2,6.6,6.3,8.4c0.5,0.5,1.3,0.8,2.2,0.9
		c0.2,0.1,0.2,0.3,0,0.4c-0.3,0.1-0.8,0.2-1.4,0.2c-2.7,0-4.3-0.8-6.5-4c-0.8-1.2-2.1-3.3-3.1-4.8c-0.5-0.7-1-1-2.2-1
		c-1.4,0-1.5,0-1.5,0.7v4c0,3.3,0.1,3.7,1.9,3.9l0.7,0.1c0.2,0.2,0.1,0.7-0.1,0.8c-1.4-0.1-2.5-0.1-3.8-0.1c-1.3,0-2.5,0-3.9,0.1
		c-0.2-0.1-0.3-0.6-0.1-0.8l0.8-0.1c1.8-0.2,1.9-0.6,1.9-3.9V356.6z M502.1,361.1c0,0.6,0,0.9,0.1,1c0.1,0.1,0.6,0.2,2.2,0.2
		c1.1,0,2.3-0.1,3.3-0.8c0.9-0.7,1.6-1.8,1.6-3.9c0-2.5-1.5-4.9-5.1-4.9c-2,0-2.1,0.1-2.1,1V361.1z"/>
	<path class="st1" d="M530.3,365.4c-0.2-0.7-0.3-0.8-1.3-0.8h-4.8c-0.8,0-1,0.1-1.2,0.8l-1.1,3.3c-0.5,1.4-0.7,2.3-0.7,2.6
		c0,0.4,0.2,0.6,0.9,0.6l1,0.1c0.2,0.2,0.2,0.7-0.1,0.8c-0.8-0.1-1.8-0.1-3.3-0.1c-1,0-2.2,0.1-3,0.1c-0.2-0.1-0.3-0.6-0.1-0.8
		l1-0.1c0.8-0.1,1.5-0.4,1.9-1.5c0.6-1.4,1.5-3.5,2.8-7l3.2-8.5c0.4-1.1,0.6-1.7,0.5-2.2c0.8-0.2,1.3-0.8,1.6-1.2
		c0.2,0,0.4,0.1,0.5,0.3c0.4,1.4,0.9,2.8,1.4,4.2l4.3,12.7c0.9,2.7,1.3,3.2,2.7,3.3l0.9,0.1c0.2,0.2,0.2,0.7,0,0.8
		c-1.3-0.1-2.4-0.1-3.8-0.1c-1.5,0-2.7,0.1-3.6,0.1c-0.3-0.1-0.3-0.6-0.1-0.8l0.9-0.1c0.7-0.1,1.1-0.3,1.1-0.6
		c0-0.3-0.2-0.9-0.4-1.7L530.3,365.4z M524,362.6c-0.3,0.7-0.2,0.8,0.7,0.8h3.9c0.9,0,1-0.1,0.7-1l-1.7-5.1c-0.3-0.8-0.5-1.6-0.7-2
		h-0.1c-0.1,0.2-0.4,0.9-0.8,1.9L524,362.6z"/>
	<path class="st1" d="M547.1,368c0,3.3,0.1,3.8,1.9,3.9l1,0.1c0.2,0.1,0.1,0.7-0.1,0.8c-1.8-0.1-2.9-0.1-4.1-0.1s-2.4,0-4.4,0.1
		c-0.2-0.1-0.3-0.6,0-0.8l1.1-0.1c1.8-0.2,2-0.6,2-3.9v-14.1c0-1,0-1-0.9-1h-1.7c-1.4,0-3.1,0.1-3.9,0.8c-0.8,0.7-1.1,1.4-1.4,2.2
		c-0.3,0.2-0.7,0-0.8-0.2c0.5-1.4,1-3.4,1.2-4.7c0.1-0.1,0.5-0.1,0.6,0c0.2,1,1.2,1,2.7,1H553c1.7,0,2-0.1,2.5-0.9
		c0.2-0.1,0.5,0,0.6,0.1c-0.3,1.3-0.6,3.9-0.5,4.8c-0.1,0.3-0.7,0.3-0.8,0.1c-0.1-0.8-0.3-2-0.8-2.3c-0.7-0.5-1.9-0.8-3.7-0.8H548
		c-0.9,0-0.9,0-0.9,1.1V368z"/>
	<path class="st1" d="M557.7,362.5c0-6.3,4.7-11.1,11.2-11.1c7.3,0,11,5.3,11,10.8c0,6.4-4.9,11-11,11
		C562,373.2,557.7,368.2,557.7,362.5 M576.8,363.2c0-5.2-2.3-10.8-8.3-10.8c-3.3,0-7.5,2.2-7.5,9.2c0,4.7,2.3,10.7,8.5,10.7
		C573.2,372.2,576.8,369.4,576.8,363.2"/>
	<path class="st1" d="M586.2,356.6c0-3-0.1-3.5-1.4-3.7l-1-0.1c-0.2-0.2-0.2-0.7,0-0.8c1.8-0.2,3.9-0.3,7-0.3c2,0,3.8,0.2,5.3,0.9
		c1.5,0.8,2.6,2.2,2.6,4.4c0,3-2.4,4.6-3.9,5.3c-0.2,0.2,0,0.5,0.2,0.8c2.5,4.1,4.2,6.6,6.3,8.4c0.5,0.5,1.3,0.8,2.2,0.9
		c0.2,0.1,0.2,0.3,0,0.4c-0.3,0.1-0.8,0.2-1.4,0.2c-2.7,0-4.3-0.8-6.5-4c-0.8-1.2-2.1-3.3-3.1-4.8c-0.5-0.7-1-1-2.2-1
		c-1.4,0-1.5,0-1.5,0.7v4c0,3.3,0.1,3.7,1.9,3.9l0.7,0.1c0.2,0.2,0.1,0.7-0.1,0.8c-1.4-0.1-2.5-0.1-3.8-0.1c-1.3,0-2.5,0-3.9,0.1
		c-0.2-0.1-0.3-0.6-0.1-0.8l0.8-0.1c1.8-0.2,1.9-0.6,1.9-3.9V356.6z M588.8,361.1c0,0.6,0,0.9,0.1,1c0.1,0.1,0.6,0.2,2.2,0.2
		c1.1,0,2.3-0.1,3.3-0.8c0.9-0.7,1.6-1.8,1.6-3.9c0-2.5-1.5-4.9-5.1-4.9c-2,0-2.1,0.1-2.1,1V361.1z"/>
	<path class="st1" d="M612.3,367.9c0,3.4,0.2,3.9,1.9,4l1.2,0.1c0.2,0.2,0.1,0.7-0.1,0.8c-2-0.1-3-0.1-4.3-0.1c-1.3,0-2.5,0-4.1,0.1
		c-0.2-0.1-0.3-0.6-0.1-0.8l1-0.1c1.8-0.2,1.9-0.6,1.9-4v-1.6c0-1.7-0.1-2.1-1-3.9l-3.7-7.3c-1.1-2.1-1.5-2.2-2.5-2.4l-0.9-0.2
		c-0.2-0.2-0.2-0.7,0.1-0.8c1,0.1,2.1,0.1,3.7,0.1c1.5,0,2.6,0,3.4-0.1c0.3,0.1,0.3,0.6,0.1,0.8l-0.4,0.1c-1.1,0.2-1.3,0.3-1.3,0.6
		c0,0.3,0.8,2.1,1,2.4c1.2,2.3,2.3,4.8,3.6,7c1-1.7,2-3.5,3-5.3c0.9-1.6,2.1-3.8,2.1-4.2c0-0.2-0.6-0.4-1.3-0.5l-0.6-0.1
		c-0.2-0.2-0.2-0.7,0.1-0.8c1.1,0.1,2.1,0.1,3,0.1s1.9,0,2.9-0.1c0.3,0.2,0.3,0.6,0.1,0.8l-0.9,0.2c-1.6,0.3-2.6,2.3-4.2,5l-2,3.4
		c-1.4,2.4-1.5,2.7-1.5,5.1V367.9z"/>
</g>
</svg>
